<?xml version="1.0" standalone="no"?>
<svg width="32px" height="32px" viewBox="0 0 32 32" version="1.1" xmlns="http://www.w3.org/2000/svg">

 <path d=" M 30 1 L 31 2 L 31.50 4 L 31 6 L 30 7 L 28 8 L 4 8 L 2 7 L 1 6 L 0.50 4 L 1 2 L 2 1 L 4 0 L 28 0 z"
 style="fill:#000000; fill-opacity:1; fill-rule:nonzero; stroke:#000000; stroke-opacity:0; stroke-width:0.80;"/>

 <path d=" M 30 13 L 31 14 L 31.50 16 L 31 18 L 30 19 L 28 20 L 4 20 L 2 19 L 1 18 L 0.50 16 L 1 14 L 2 13 L 4 12 L 28 12 z"
 style="fill:#000000; fill-opacity:1; fill-rule:nonzero; stroke:#000000; stroke-opacity:0; stroke-width:0.80;"/>

 <path d=" M 30 25 L 31 26 L 31.50 28 L 31 30 L 30 31 L 28 32 L 4 32 L 2 31 L 1 30 L 0.50 28 L 1 26 L 2 25 L 4 24 L 28 24 z"
 style="fill:#000000; fill-opacity:1; fill-rule:nonzero; stroke:#000000; stroke-opacity:0; stroke-width:0.80;"/>

</svg>
