<?xml version="1.0" encoding="UTF-8"?>
<svg id="Layer_2" data-name="Layer 2" xmlns="http://www.w3.org/2000/svg" viewBox="0 0 24 24">
  <path d="M8.53,3.96l.18.4c.29.4.71.65,1.15.87l-.17,3.64.51-3.49.76.17c.05.06-.11,1.23-.12,1.42-.1,1.3-.16,2.59-.13,3.9.07,0,.04-.1.04-.15.07-1.7.32-3.38.62-5.05l.09-.04c1.58.21,3.47.05,4.74-.99l.31-.41c-.07,1.06-.21,2.12-.3,3.17-.17,1.98-.32,3.98-.39,5.96-.02.45.07,1.18,0,1.58-.02.13-.32.49-.4.66-.13.27-.25.63-.28.94l.49-.85.38-.37,2.05,1.73c.19.26.1,1.23-.27,1.31-.5.11-1.19-.12-1.67-.25l.47,3.17c0,.06,0,.12-.04.17-.11.16-2.04.88-2.13.79l-.49-3.49c-.06,1.21.04,2.42.15,3.62l-.7.12-.06-.07c-.22-1.18-.3-2.39-.26-3.59-.06.03-.07.22-.08.28-.17,1.11-.09,2.3-.05,3.42-1.47.11-3.08.08-4.39-.68V3.96Z"/>
  <path d="M16.57,3.23c.23,1.48-2.46,2.04-3.5,2.1-1.19.07-3.88-.22-4.44-1.48-.72-1.62,2.35-2.3,3.42-2.36,1.15-.06,4.29.26,4.53,1.74Z"/>
</svg>