<?xml version="1.0" encoding="UTF-8"?>
<svg id="Layer_2" data-name="Layer 2" xmlns="http://www.w3.org/2000/svg" viewBox="0 0 24 24">
  <defs>
    <style>
      .cls-1 {
        fill: #dbdbdb;
      }

      .cls-1, .cls-2 {
        stroke: #000;
        stroke-linecap: round;
        stroke-linejoin: round;
      }

      .cls-2 {
        fill: none;
        stroke-width: 2px;
      }
    </style>
  </defs>
  <path class="cls-1" d="M13.4,22.37l-.7.12-.06-.07"/>
  <path class="cls-1" d="M15.52,4.63l.31-.41c-.07,1.06-.21,2.12-.3,3.17-.17,1.98-.32,3.98-.39,5.96-.02.45.07,1.18,0,1.58-.02.13-.32.49-.4.66-.13.27-.25.63-.28.94l.49-.85.38-.37,2.05,1.73c.19.26.1,1.23-.27,1.31-.5.11-1.19-.12-1.67-.25l.47,3.17c0,.06,0,.12-.04.17-.11.16-2.04.88-2.13.79l-1.5.2c-1.47.11-3.08.08-4.39-.68V3.86l.18.4"/>
  <path class="cls-1" d="M15.9,3.23c.23,1.48-2.46,2.04-3.5,2.1-1.19.07-3.88-.22-4.44-1.48-.72-1.62,2.35-2.3,3.42-2.36,1.15-.06,4.29.26,4.53,1.74Z"/>
  <line class="cls-2" x1="11.57" y1="19.96" x2="11.57" y2="3.9"/>
</svg>