<?xml version="1.0" encoding="UTF-8"?>
<svg id="Layer_2" data-name="Layer 2" xmlns="http://www.w3.org/2000/svg" viewBox="0 0 24 24">
  <defs>
    <style>
      .cls-1 {
        fill: #dbdbdb;
      }

      .cls-1, .cls-2 {
        stroke: #000;
        stroke-linecap: round;
        stroke-linejoin: round;
      }

      .cls-2 {
        fill: none;
      }
    </style>
  </defs>
  <path class="cls-2" d="M11.85,3.68s.06-.01.1-.02c.05,0,.09-.01.14-.02.05,0,.09,0,.14,0,.09,0,.19,0,.28,0,.09,0,.19.01.28.03.09.01.19.03.29.05.1.02.19.04.29.07.1.03.19.06.29.1.1.04.19.07.29.12.1.04.19.09.29.14s.19.1.29.16c.1.06.2.12.29.18.1.06.2.13.29.2.1.07.19.14.29.22.05.04.1.08.15.11.05.04.1.08.15.12s.1.08.15.12.1.08.15.13c.1.09.19.18.29.27.1.09.19.19.29.29.1.1.19.2.29.31.09.1.19.21.28.32.09.11.19.22.28.34.09.12.19.24.28.36.09.12.18.25.27.38.09.13.18.26.27.39s.18.27.27.41c.09.14.17.28.26.43.09.15.17.29.25.44.08.15.17.3.25.46.08.16.16.32.24.48.08.16.16.33.23.5s.15.34.22.51c.07.17.14.35.21.53.07.18.14.36.2.54.07.18.13.37.19.56.03.09.06.19.09.28.03.09.06.19.09.29s.06.19.08.29c.03.1.05.19.08.29s.05.2.08.29c.02.1.05.2.07.3.02.1.05.2.07.3.02.1.04.2.06.3s.04.2.06.3c.02.1.04.2.06.3s.03.2.05.3c.02.1.03.2.05.3.01.1.03.2.04.3s.03.2.04.3c.01.1.02.2.03.3.01.1.02.2.03.3,0,.1.02.2.02.3s.01.2.02.3c0,.1.01.2.02.3s0,.2.01.29,0,.2,0,.29c0,.1,0,.19,0,.29s0,.19,0,.29c0,.1,0,.19,0,.28,0,.09,0,.19,0,.28,0,.09,0,.19-.01.28-2.79-.11-5.58-.22-8.37-.33,0-.08,0-.15.01-.23,0-.08,0-.15,0-.23,0-.08,0-.15,0-.23,0-.08,0-.16,0-.24,0-.08,0-.16,0-.24s0-.16-.01-.24c0-.08,0-.16-.01-.24,0-.08-.01-.16-.02-.24s-.02-.16-.02-.24c0-.08-.02-.16-.03-.25-.01-.08-.02-.16-.03-.25-.01-.08-.02-.16-.04-.25s-.03-.16-.04-.25-.03-.16-.05-.24c-.02-.08-.03-.16-.05-.24s-.04-.16-.06-.24c-.02-.08-.04-.16-.06-.24-.02-.08-.04-.16-.06-.24-.02-.08-.04-.16-.07-.24-.02-.08-.05-.16-.07-.23s-.05-.15-.07-.23-.05-.15-.08-.23-.05-.15-.08-.22c-.03-.07-.05-.15-.08-.22s-.06-.15-.08-.22c-.03-.07-.06-.14-.09-.22-.06-.14-.12-.28-.18-.42-.06-.14-.12-.27-.19-.41-.06-.13-.13-.27-.19-.39s-.13-.26-.2-.38c-.07-.12-.14-.25-.2-.37-.07-.12-.14-.24-.21-.36s-.14-.23-.21-.34c-.07-.11-.14-.22-.22-.33-.07-.11-.15-.21-.22-.32-.07-.1-.15-.21-.22-.31-.07-.1-.15-.2-.22-.3-.08-.1-.15-.19-.23-.28-.08-.09-.15-.18-.23-.27-.08-.09-.15-.18-.23-.26-.08-.08-.15-.17-.23-.25-.06-.06-.12-.12-.18-.18-.02-.02-.04-.04-.05-.05-.08-.08-.16-.15-.23-.23-.08-.07-.16-.15-.24-.21-.04-.03-.08-.07-.12-.1-.04-.03-.08-.07-.12-.1s-.08-.07-.12-.1c-.04-.03-.08-.06-.12-.09-.08-.06-.16-.12-.24-.18s-.16-.11-.24-.17-.16-.11-.24-.16c-.08-.05-.16-.1-.24-.14-.08-.05-.16-.09-.24-.13-.08-.04-.16-.08-.24-.12s-.16-.07-.24-.1-.16-.06-.24-.09c-.08-.03-.16-.05-.24-.07s-.16-.04-.23-.06c-.08-.02-.16-.03-.23-.04-.04,0-.08-.01-.12-.02-.04,0-.08,0-.11-.01-.08,0-.15,0-.23,0-.08,0-.15,0-.23.01-.07,0-.15.02-.22.03-.01,0-.02,0-.03,0,.06-.01.13-.03.19-.04.03,0,.06-.01.09-.02.05-.01.1-.02.15-.04.06-.02.13-.04.19-.06.05-.02.11-.03.16-.05.11-.04.23-.08.35-.12.06-.02.12-.05.19-.07.1-.04.2-.08.3-.13.1-.04.2-.09.29-.13.1-.05.2-.09.3-.14.12-.06.24-.12.36-.18.12-.06.24-.12.36-.18.14-.07.28-.15.42-.22.04-.02.09-.05.13-.07.07-.04.15-.08.22-.12.1-.05.2-.1.29-.15.09-.05.18-.1.28-.14.09-.04.18-.09.26-.13.09-.04.17-.08.26-.12.08-.04.17-.08.25-.12.02-.01.05-.02.08-.04.06-.02.11-.05.17-.07.03-.01.06-.02.08-.04.06-.02.11-.05.17-.07.03-.01.06-.02.08-.03.06-.02.11-.04.17-.07.02,0,.05-.02.08-.03.03-.01.06-.02.09-.03.03-.01.06-.02.09-.03.03-.01.06-.02.09-.03.06-.02.12-.04.17-.06.03,0,.06-.02.09-.03.06-.02.12-.04.18-.05.09-.03.18-.05.28-.08.13-.03.26-.06.39-.09.13-.03.25-.05.38-.08Z"/>
  <path class="cls-1" d="M11.85,3.68s.06-.01.1-.02c.05,0,.09-.01.14-.02.05,0,.09,0,.14,0,.09,0,.19,0,.28,0,.09,0,.19.01.28.03.09.01.19.03.29.05.1.02.19.04.29.07.1.03.19.06.29.1.1.04.19.07.29.12.1.04.19.09.29.14s.19.1.29.16c.1.06.2.12.29.18.1.06.2.13.29.2.1.07.19.14.29.22.05.04.1.08.15.11.05.04.1.08.15.12s.1.08.15.12.1.08.15.13c.1.09.19.18.29.27.1.09.19.19.29.29.1.1.19.2.29.31.09.1.19.21.28.32.09.11.19.22.28.34.09.12.19.24.28.36.09.12.18.25.27.38.09.13.18.26.27.39s.18.27.27.41c.09.14.17.28.26.43.09.15.17.29.25.44.08.15.17.3.25.46.08.16.16.32.24.48.08.16.16.33.23.5s.15.34.22.51c.07.17.14.35.21.53.07.18.14.36.2.54.07.18.13.37.19.56.03.09.06.19.09.28.03.09.06.19.09.29s.06.19.08.29c.03.1.05.19.08.29s.05.2.08.29c.02.1.05.2.07.3.02.1.05.2.07.3.02.1.04.2.06.3s.04.2.06.3c.02.1.04.2.06.3s.03.2.05.3c.02.1.03.2.05.3.01.1.03.2.04.3s.03.2.04.3c.01.1.02.2.03.3.01.1.02.2.03.3,0,.1.02.2.02.3s.01.2.02.3c0,.1.01.2.02.3s0,.2.01.29,0,.2,0,.29c0,.1,0,.19,0,.29s0,.19,0,.29c0,.1,0,.19,0,.28,0,.09,0,.19,0,.28,0,.09,0,.19-.01.28-2.79-.11-5.58-.22-8.37-.33,0-.08,0-.15.01-.23,0-.08,0-.15,0-.23,0-.08,0-.15,0-.23,0-.08,0-.16,0-.24,0-.08,0-.16,0-.24s0-.16-.01-.24c0-.08,0-.16-.01-.24,0-.08-.01-.16-.02-.24s-.02-.16-.02-.24c0-.08-.02-.16-.03-.25-.01-.08-.02-.16-.03-.25-.01-.08-.02-.16-.04-.25s-.03-.16-.04-.25-.03-.16-.05-.24c-.02-.08-.03-.16-.05-.24s-.04-.16-.06-.24c-.02-.08-.04-.16-.06-.24-.02-.08-.04-.16-.06-.24-.02-.08-.04-.16-.07-.24-.02-.08-.05-.16-.07-.23s-.05-.15-.07-.23-.05-.15-.08-.23-.05-.15-.08-.22c-.03-.07-.05-.15-.08-.22s-.06-.15-.08-.22c-.03-.07-.06-.14-.09-.22-.06-.14-.12-.28-.18-.42-.06-.14-.12-.27-.19-.41-.06-.13-.13-.27-.19-.39s-.13-.26-.2-.38c-.07-.12-.14-.25-.2-.37-.07-.12-.14-.24-.21-.36s-.14-.23-.21-.34c-.07-.11-.14-.22-.22-.33-.07-.11-.15-.21-.22-.32-.07-.1-.15-.21-.22-.31-.07-.1-.15-.2-.22-.3-.08-.1-.15-.19-.23-.28-.08-.09-.15-.18-.23-.27-.08-.09-.15-.18-.23-.26-.08-.08-.15-.17-.23-.25-.06-.06-.12-.12-.18-.18-.02-.02-.04-.04-.05-.05-.08-.08-.16-.15-.23-.23-.08-.07-.16-.15-.24-.21-.04-.03-.08-.07-.12-.1-.04-.03-.08-.07-.12-.1s-.08-.07-.12-.1c-.04-.03-.08-.06-.12-.09-.08-.06-.16-.12-.24-.18s-.16-.11-.24-.17-.16-.11-.24-.16c-.08-.05-.16-.1-.24-.14-.08-.05-.16-.09-.24-.13-.08-.04-.16-.08-.24-.12s-.16-.07-.24-.1-.16-.06-.24-.09c-.08-.03-.16-.05-.24-.07s-.16-.04-.23-.06c-.08-.02-.16-.03-.23-.04-.04,0-.08-.01-.12-.02-.04,0-.08,0-.11-.01-.08,0-.15,0-.23,0-.08,0-.15,0-.23.01-.07,0-.15.02-.22.03-.01,0-.02,0-.03,0,.06-.01.13-.03.19-.04.03,0,.06-.01.09-.02.05-.01.1-.02.15-.04.06-.02.13-.04.19-.06.05-.02.11-.03.16-.05.11-.04.23-.08.35-.12.06-.02.12-.05.19-.07.1-.04.2-.08.3-.13.1-.04.2-.09.29-.13.1-.05.2-.09.3-.14.12-.06.24-.12.36-.18.12-.06.24-.12.36-.18.14-.07.28-.15.42-.22.04-.02.09-.05.13-.07.07-.04.15-.08.22-.12.1-.05.2-.1.29-.15.09-.05.18-.1.28-.14.09-.04.18-.09.26-.13.09-.04.17-.08.26-.12.08-.04.17-.08.25-.12.02-.01.05-.02.08-.04.06-.02.11-.05.17-.07.03-.01.06-.02.08-.04.06-.02.11-.05.17-.07.03-.01.06-.02.08-.03.06-.02.11-.04.17-.07.02,0,.05-.02.08-.03.03-.01.06-.02.09-.03.03-.01.06-.02.09-.03.03-.01.06-.02.09-.03.06-.02.12-.04.17-.06.03,0,.06-.02.09-.03.06-.02.12-.04.18-.05.09-.03.18-.05.28-.08.13-.03.26-.06.39-.09.13-.03.25-.05.38-.08Z"/>
  <path class="cls-2" d="M11.85,3.68s.06-.01.1-.02c.05,0,.09-.01.14-.02.05,0,.09,0,.14,0,.09,0,.19,0,.28,0,.09,0,.19.01.28.03.09.01.19.03.29.05.1.02.19.04.29.07.1.03.19.06.29.1.1.04.19.07.29.12.1.04.19.09.29.14s.19.1.29.16c.1.06.2.12.29.18.1.06.2.13.29.2.1.07.19.14.29.22.05.04.1.08.15.11.05.04.1.08.15.12s.1.08.15.12.1.08.15.13c.1.09.19.18.29.27.1.09.19.19.29.29.1.1.19.2.29.31.09.1.19.21.28.32.09.11.19.22.28.34.09.12.19.24.28.36.09.12.18.25.27.38.09.13.18.26.27.39s.18.27.27.41c.09.14.17.28.26.43.09.15.17.29.25.44.08.15.17.3.25.46.08.16.16.32.24.48.08.16.16.33.23.5s.15.34.22.51c.07.17.14.35.21.53.07.18.14.36.2.54.07.18.13.37.19.56.03.09.06.19.09.28.03.09.06.19.09.29s.06.19.08.29c.03.1.05.19.08.29s.05.2.08.29c.02.1.05.2.07.3.02.1.05.2.07.3.02.1.04.2.06.3s.04.2.06.3c.02.1.04.2.06.3s.03.2.05.3c.02.1.03.2.05.3.01.1.03.2.04.3s.03.2.04.3c.01.1.02.2.03.3.01.1.02.2.03.3,0,.1.02.2.02.3s.01.2.02.3c0,.1.01.2.02.3s0,.2.01.29,0,.2,0,.29c0,.1,0,.19,0,.29s0,.19,0,.29c0,.1,0,.19,0,.28,0,.09,0,.19,0,.28,0,.09,0,.19-.01.28"/>
  <path class="cls-2" d="M4.23,6.75c-.06.01-.12.03-.18.04-.07.02-.14.05-.21.07-.07.03-.14.06-.21.1s-.14.08-.2.12c-.03.02-.07.05-.1.07s-.06.05-.1.08c-.03.03-.06.06-.09.09-.03.03-.06.06-.09.09s-.06.07-.09.1c-.03.04-.06.07-.09.11s-.06.08-.08.12c-.03.04-.05.08-.08.12-.03.04-.05.09-.08.13s-.05.09-.07.14c-.02.05-.05.1-.07.15-.02.05-.04.1-.06.16-.02.05-.04.11-.06.16-.02.06-.04.11-.06.17-.02.06-.04.12-.05.18-.02.06-.03.12-.05.18-.02.06-.03.13-.04.19s-.03.13-.04.2c-.01.07-.02.13-.03.2-.01.07-.02.14-.03.21s-.02.14-.03.21c0,.07-.02.14-.02.22s-.01.15-.02.22c0,.07,0,.15-.01.22"/>
  <path class="cls-2" d="M4.23,6.75c.06-.01.13-.03.2-.04.03,0,.06-.01.09-.02.05-.01.1-.02.15-.04.06-.02.13-.04.19-.06.05-.02.11-.03.16-.05.11-.04.23-.08.35-.12.06-.02.12-.05.19-.07.1-.04.2-.08.3-.13.1-.04.2-.09.29-.13.1-.05.2-.09.3-.14.12-.06.24-.12.36-.18.12-.06.24-.12.36-.18.14-.07.28-.15.42-.22.04-.02.09-.05.13-.07.07-.04.15-.08.22-.12.1-.05.2-.1.29-.15.09-.05.18-.1.28-.14.09-.04.18-.09.26-.13.09-.04.17-.08.26-.12.08-.04.17-.08.25-.12.02-.01.05-.02.08-.04.06-.02.11-.05.17-.07.03-.01.06-.02.08-.04.06-.02.11-.05.17-.07.03-.01.06-.02.08-.03.06-.02.11-.04.17-.07.02,0,.05-.02.08-.03.03-.01.06-.02.09-.03.03-.01.06-.02.09-.03.03-.01.06-.02.09-.03.06-.02.12-.04.17-.06.03,0,.06-.02.09-.03.06-.02.12-.04.18-.05.09-.03.18-.05.28-.08.13-.03.26-.06.39-.09.13-.03.25-.05.38-.08"/>
  <path class="cls-2" d="M21.6,20.53c-2.79-.11-5.58-.22-8.37-.33"/>
  <path class="cls-2" d="M8.7,9.76c0-.09.01-.18.02-.28,0-.09.01-.18.02-.27,0-.09.02-.18.02-.27,0-.02,0-.04,0-.05"/>
  <path class="cls-2" d="M1.99,10.82c2.24-.35,4.47-.7,6.71-1.06"/>
</svg>