<?xml version="1.0" encoding="UTF-8"?>
<svg id="Layer_1" data-name="Layer 1" xmlns="http://www.w3.org/2000/svg" viewBox="0 0 96 96">
  <defs>
    <style>
      .cls-1 {
        fill: #000;
        stroke-width: 0px;
      }
    </style>
  </defs>
  <path class="cls-1" d="M24.22,54.08c-1.35-1.36-2.6-2.61-3.85-3.86-1.32-1.32-2.65-2.64-3.96-3.98-.16-.16-.27-.44-.27-.66-.02-1.74,0-3.49-.02-5.23,0-.19-.06-.44-.19-.57-2.5-2.52-5.02-5.04-7.54-7.55-.04-.04-.08-.07-.19-.15v5.9c-.16-.13-.25-.19-.32-.26-2.51-2.5-5.01-5.01-7.51-7.52-.12-.12-.21-.34-.21-.52,0-9.79,0-19.58,0-29.37,0-.11,0-.22,0-.35h96.03v.45c0,9.73,0,19.46,0,29.2,0,.28-.08.47-.28.67-2.46,2.45-4.91,4.91-7.37,7.35-.26.25-.35.51-.35.86.02,1.71.01,3.43,0,5.14,0,.18-.08.4-.2.52-2.52,2.53-5.04,5.06-7.57,7.58-.06.06-.12.1-.24.2v-5.83c-2.66,2.68-5.28,5.31-7.95,7.98-.91-.92-1.72-1.76-2.55-2.58-1.73-1.74-3.47-3.48-5.22-5.21-.21-.21-.3-.41-.3-.71.01-1.74.01-3.49,0-5.23,0-.19-.07-.44-.2-.57-2.51-2.53-5.04-5.06-7.57-7.58-.05-.05-.1-.09-.22-.18v5.87c-2.66-2.68-5.28-5.31-7.91-7.96-.19.16-.28.22-.35.3-2.49,2.49-4.99,4.99-7.48,7.49-.14.14-.24.39-.24.59-.02,1.77,0,3.54-.02,5.32,0,.19-.08.42-.21.55-2.47,2.5-4.96,4.98-7.45,7.46-.09.09-.18.17-.35.32v-5.87c-2.66,2.68-5.29,5.31-7.95,7.99Z"/>
  <path class="cls-1" d="M24.17,66c2.67-2.68,5.31-5.32,8.02-8.04v5.97c.16-.14.24-.2.32-.28,2.46-2.45,4.91-4.91,7.37-7.36.21-.21.29-.42.29-.71-.01-1.74-.01-3.49,0-5.23,0-.2.09-.45.23-.59,2.49-2.51,5-5.01,7.5-7.52.23-.24.35-.17.54.03,2.43,2.44,4.86,4.87,7.3,7.3.11.11.22.2.38.36v-5.94c.15.13.25.2.33.28,2.49,2.49,4.99,4.99,7.47,7.49.14.14.23.39.23.6.02,1.76,0,3.52.02,5.27,0,.19.08.43.2.56,2.53,2.55,5.08,5.1,7.63,7.64.05.05.1.09.18.15,2.64-2.65,5.27-5.29,7.89-7.92.04.01.07.03.11.04v5.73c.05.03.11.07.16.1.45-.49.89-.99,1.35-1.46,2.06-2.08,4.14-4.14,6.2-6.22.14-.14.24-.39.24-.59.02-1.76,0-3.52.02-5.27,0-.19.09-.43.22-.56,2.52-2.54,5.06-5.08,7.6-7.61.05-.05.1-.09.19-.17v53.95H.17v-53.91c2.62,2.63,5.22,5.24,7.82,7.85.04-.02.08-.04.12-.06v-5.77c.05-.04.11-.07.16-.11.35.39.68.79,1.04,1.16,2.18,2.19,4.36,4.37,6.55,6.55.22.22.31.44.31.75-.01,1.71,0,3.43-.01,5.14,0,.29.07.5.28.71,2.48,2.47,4.95,4.94,7.42,7.42.08.08.17.15.3.28Z"/>
</svg>