<?xml version="1.0" encoding="UTF-8"?>
<svg id="Layer_1" data-name="Layer 1" xmlns="http://www.w3.org/2000/svg" viewBox="0 0 24 24">
  <defs>
    <style>
      .cls-1 {
        fill: #000;
        stroke-width: 0px;
      }
    </style>
  </defs>
  <path class="cls-1" d="M6.02,13.53c-.34-.34-.65-.65-.96-.97-.33-.33-.66-.66-.99-.99-.04-.04-.07-.11-.07-.17,0-.44,0-.87,0-1.31,0-.05-.02-.11-.05-.14-.63-.63-1.26-1.26-1.88-1.89,0,0-.02-.02-.05-.04v1.48s-.06-.05-.08-.06c-.63-.63-1.25-1.25-1.88-1.88-.03-.03-.05-.09-.05-.13C0,4.98,0,2.53,0,.09,0,.06,0,.03,0,0h24.01v.11c0,2.43,0,4.87,0,7.3,0,.07-.02.12-.07.17-.61.61-1.23,1.23-1.84,1.84-.06.06-.09.13-.09.21,0,.43,0,.86,0,1.29,0,.04-.02.1-.05.13-.63.63-1.26,1.26-1.89,1.9-.01.01-.03.03-.06.05v-1.46c-.67.67-1.32,1.33-1.99,1.99-.23-.23-.43-.44-.64-.65-.43-.43-.87-.87-1.3-1.3-.05-.05-.08-.1-.08-.18,0-.44,0-.87,0-1.31,0-.05-.02-.11-.05-.14-.63-.63-1.26-1.26-1.89-1.89-.01-.01-.03-.02-.05-.05v1.47c-.67-.67-1.32-1.33-1.98-1.99-.05.04-.07.06-.09.07-.62.62-1.25,1.25-1.87,1.87-.03.04-.06.1-.06.15,0,.44,0,.89,0,1.33,0,.05-.02.11-.05.14-.62.62-1.24,1.24-1.86,1.87-.02.02-.05.04-.09.08v-1.47c-.67.67-1.32,1.33-1.99,2Z"/>
  <path class="cls-1" d="M6,16.5c.67-.67,1.33-1.33,2-2.01v1.49s.06-.05.08-.07c.61-.61,1.23-1.23,1.84-1.84.05-.05.07-.1.07-.18,0-.44,0-.87,0-1.31,0-.05.02-.11.06-.15.62-.63,1.25-1.25,1.87-1.88.06-.06.09-.04.14,0,.61.61,1.22,1.22,1.82,1.83.03.03.06.05.1.09v-1.48s.06.05.08.07c.62.62,1.25,1.25,1.87,1.87.03.03.06.1.06.15,0,.44,0,.88,0,1.32,0,.05.02.11.05.14.63.64,1.27,1.27,1.91,1.91.01.01.03.02.04.04.66-.66,1.32-1.32,1.97-1.98,0,0,.02,0,.03.01v1.43s.03.02.04.02c.11-.12.22-.25.34-.36.52-.52,1.04-1.03,1.55-1.56.04-.04.06-.1.06-.15,0-.44,0-.88,0-1.32,0-.05.02-.11.05-.14.63-.64,1.27-1.27,1.9-1.9.01-.01.02-.02.05-.04v13.49H0v-13.48c.66.66,1.31,1.31,1.96,1.96.01,0,.02-.01.03-.02v-1.44s.03-.02.04-.03c.09.1.17.2.26.29.54.55,1.09,1.09,1.64,1.64.05.05.08.11.08.19,0,.43,0,.86,0,1.29,0,.07.02.13.07.18.62.62,1.24,1.24,1.86,1.85.02.02.04.04.07.07Z"/>
</svg>