<?xml version="1.0" encoding="UTF-8"?>
<svg id="Layer_2" data-name="Layer 2" xmlns="http://www.w3.org/2000/svg" viewBox="0 0 24 24">
  <defs>
    <style>
      .cls-1 {
        fill: #dbdbdb;
        stroke: #000;
        stroke-linecap: round;
        stroke-linejoin: round;
      }
    </style>
  </defs>
  <polygon class="cls-1" points="11.95 11.28 3.22 20.02 3.22 2.54 11.95 11.28 11.95 11.28"/>
  <polygon class="cls-1" points="12.02 11.28 20.75 2.54 20.75 20.02 12.02 11.28 12.02 11.28"/>
  <polygon class="cls-1" points="12.02 11.32 12.02 22.31 3.29 20.05 12.02 11.32 12.02 11.32"/>
  <polygon class="cls-1" points="12.02 11.24 3.29 2.51 11.95 4.77 12.02 11.24 12.02 11.24"/>
  <polygon class="cls-1" points="12.02 11.32 12.02 22.31 20.75 20.05 12.02 11.32 12.02 11.32"/>
  <polygon class="cls-1" points="12.02 11.24 20.75 2.51 12.09 4.77 12.02 11.24 12.02 11.24"/>
</svg>