<?xml version="1.0" encoding="UTF-8"?>
<svg id="Layer_2" data-name="Layer 2" xmlns="http://www.w3.org/2000/svg" viewBox="0 0 24 24">
  <defs>
    <style>
      .cls-1 {
        fill: #000;
      }

      .cls-1, .cls-2 {
        stroke-width: 0px;
      }

      .cls-3 {
        fill: #dbdbdb;
        stroke: #000;
        stroke-linecap: round;
        stroke-linejoin: round;
      }

      .cls-2 {
        fill: #fff;
      }
    </style>
  </defs>
  <polygon class="cls-3" points="5.55 14.51 14.62 20.57 14.62 9.49 5.55 3.43 5.55 14.51"/>
  <g>
    <path class="cls-2" d="M2.66,6.91l16.81,8.79c.98.51,1.36,1.73.85,2.71-.51.98-1.73,1.36-2.71.85-.12-.07-.25-.15-.35-.24L2.66,6.91Z"/>
    <polygon class="cls-2" points="15.18 20.05 23.14 20.55 19.6 13.4 15.18 20.05"/>
  </g>
  <g>
    <path class="cls-1" d="M2.66,6.91l16.53,9.21c.73.4.99,1.32.58,2.05-.4.73-1.32.99-2.05.58-.07-.04-.14-.09-.2-.13L2.66,6.91Z"/>
    <polygon class="cls-1" points="15.97 19.38 21.95 19.76 19.29 14.4 15.97 19.38"/>
  </g>
</svg>