<?xml version="1.0" encoding="UTF-8"?>
<svg id="Layer_2" data-name="Layer 2" xmlns="http://www.w3.org/2000/svg" viewBox="0 0 24 24">
  <defs>
    <style>
      .cls-1 {
        fill: none;
        stroke: #000;
        stroke-miterlimit: 10;
      }

      .cls-2 {
        fill: #020202;
      }

      .cls-3 {
        fill: #dbdbdb;
      }
    </style>
  </defs>
  <path class="cls-2" d="M0,0v6.63l6.01,6.1,1.8-1.81L13.03,2.58l-.06.47c.03.53.28,1.01.55,1.46l-1.57,2.27.08.08,1.72-2.02.6.6c0,.1-.81,1.07-.93,1.24-.22.3-.44.6-.65.9l.17.17c.56-.67,1.14-1.32,1.72-1.97l.1.02c1.34,1.1,3.17,2.05,4.94,1.81l.53-.19c-.68.93-1.42,1.82-2.11,2.75-.38.51-.77,1.02-1.15,1.54l1.04,1.02,5.99-6.11V0H0ZM20.87,6.55c-.64,1.49-3.45.46-4.44-.09-1.14-.63-3.45-2.45-3.24-3.93.27-1.91,3.49-.76,4.51-.2,1.1.61,3.81,2.72,3.17,4.22Z"/>
  <path class="cls-3" d="M13.52,4.51l-1.57,2.27h-.01s-4.13,4.14-4.13,4.14L13.03,2.58l-.06.47c.03.53.28,1.01.55,1.46Z"/>
  <path class="cls-3" d="M13.42,6.68c-.22.3-.44.6-.65.9l-.74-.72,1.72-2.02.6.6c0,.1-.81,1.07-.93,1.24Z"/>
  <path class="cls-3" d="M19.7,7.61l.53-.19c-.68.93-1.42,1.82-2.11,2.75-.38.51-.77,1.02-1.15,1.54l-4.03-3.96c.56-.67,1.14-1.32,1.72-1.97l.1.02c1.34,1.1,3.17,2.05,4.94,1.81Z"/>
  <path class="cls-3" d="M20.87,6.55c-.64,1.49-3.45.46-4.44-.09-1.14-.63-3.45-2.45-3.24-3.93.27-1.91,3.49-.76,4.51-.2,1.1.61,3.81,2.72,3.17,4.22Z"/>
  <path d="M24,12.73v11.27H0v-11.26l4.11,4.1-1.4,2.23c.76,1.45,2.23,2.41,3.64,3.16.61-1.06,1.23-2.2,2.03-3.13.04-.05.16-.22.23-.21-.73,1.09-1.34,2.24-1.83,3.46l.02.09.71.3c.59-1.18,1.2-2.35,1.96-3.43l-1.57,3.5c.03.15,2.22.59,2.42.51.07-.02.1-.07.14-.13l1.4-3.2c.37.4.87,1.01,1.4,1.19.38.14,1.02-.7,1-1.05l-.89-2.78-.56.13-.95.49c.2-.26.52-.52.8-.7.17-.11.66-.28.75-.38.3-.32.64-1.05.91-1.45.05-.08.11-.16.17-.24l3.51,3.51,6-5.98Z"/>
  <path class="cls-3" d="M11.86,17.97l.95-.49.56-.13.89,2.78c.02.35-.62,1.19-1,1.05-.53-.18-1.03-.79-1.4-1.19l-1.4,3.2c-.04.06-.07.11-.14.13-.2.08-2.39-.36-2.42-.51l1.57-3.5c-.76,1.08-1.37,2.25-1.96,3.43l-.71-.3-.02-.09c.49-1.22,1.1-2.37,1.83-3.46-.07-.01-.19.16-.23.21-.8.93-1.42,2.07-2.03,3.13-1.41-.75-2.88-1.71-3.64-3.16l1.4-2.23,1.89,1.88,6.07-5.93,2.42,2.41c-.06.08-.12.16-.17.24-.27.4-.61,1.13-.91,1.45-.09.1-.58.27-.75.38-.28.18-.6.44-.8.7Z"/>
  <path d="M0,0v6.63l6.01,6.1,1.8-1.81L13.03,2.58l-.06.47c.03.53.28,1.01.55,1.46l-1.57,2.27.08.08,1.72-2.02.6.6c0,.1-.81,1.07-.93,1.24-.22.3-.44.6-.65.9l.17.17c.56-.67,1.14-1.32,1.72-1.97l.1.02c1.34,1.1,3.17,2.05,4.94,1.81l.53-.19c-.68.93-1.42,1.82-2.11,2.75-.38.51-.77,1.02-1.15,1.54l1.04,1.02,5.99-6.11V0H0ZM20.87,6.55c-.64,1.49-3.45.46-4.44-.09-1.14-.63-3.45-2.45-3.24-3.93.27-1.91,3.49-.76,4.51-.2,1.1.61,3.81,2.72,3.17,4.22Z"/>
  <path d="M24.03,12.73v11.27H.03v-11.26l4.11,4.1-1.4,2.23c.76,1.45,2.23,2.41,3.64,3.16.61-1.06,1.23-2.2,2.03-3.13.04-.05.16-.22.23-.21-.73,1.09-1.34,2.24-1.83,3.46l.02.09.71.3c.59-1.18,1.2-2.35,1.96-3.43l-1.57,3.5c.03.15,2.22.59,2.42.51.07-.02.1-.07.14-.13l1.4-3.2c.37.4.87,1.01,1.4,1.19.38.14,1.02-.7,1-1.05l-.89-2.78-.56.13-.95.49c.2-.26.52-.52.8-.7.17-.11.66-.28.75-.38.3-.32.64-1.05.91-1.45.05-.08.11-.16.17-.24l3.51,3.51,6-5.98Z"/>
  <path class="cls-3" d="M8.07,10.5s-4.01,6.29-3.96,6.34l1.89,1.88,6.07-5.93,2.29,2.4,2.61-3.48-5.02-4.93"/>
  <line class="cls-1" x1="17.64" y1="11.59" x2="14.69" y2="15.75"/>
  <line class="cls-1" x1="8.9" y1="8.11" x2="3.45" y2="17.04"/>
</svg>