<svg width="180px" height="180px" viewBox="0 0 180 180" version="1.1" xmlns="http://www.w3.org/2000/svg">

 <path d="
M 102.22 73.95 L 
153.08 90.48 
102.22 107.00 
102.22 160.48 
70.79 117.21 
19.93 133.74 
51.36 90.48 
19.93 47.21 
70.79 63.74 
102.22 20.48 
Z
" style="fill:#000000; fill-opacity:0.04; fill-rule:nonzero; stroke:#000000; stroke-opacity:0.38; stroke-width:1.00;"/>

 <path d="
M 129.84 90.48 L 
129.42 96.92 
128.19 103.25 
126.16 109.37 
123.36 115.19 
119.84 120.60 
115.65 125.51 
110.88 129.85 
105.58 133.54 
99.86 136.53 
93.81 138.75 
87.51 140.19 
81.09 140.81 
74.64 140.60 
68.27 139.57 
62.08 137.74 
56.18 135.13 
50.66 131.78 
45.62 127.76 
41.13 123.12 
37.27 117.95 
34.10 112.33 
31.68 106.35 
30.05 100.10 
29.22 93.70 
29.22 87.25 
30.05 80.85 
31.68 74.61 
34.10 68.63 
37.27 63.00 
41.13 57.83 
45.62 53.20 
50.66 49.17 
56.18 45.83 
62.08 43.22 
68.27 41.38 
74.64 40.35 
81.09 40.14 
87.51 40.76 
93.81 42.20 
99.86 44.43 
105.58 47.41 
110.88 51.10 
115.65 55.44 
119.84 60.36 
123.36 65.76 
126.16 71.58 
128.19 77.70 
129.42 84.04 
Z
" style="fill:#FF6600; fill-opacity:0.06; fill-rule:nonzero; stroke:#996600; stroke-opacity:0.25; stroke-width:1.00;"/>

<g font-family="Verdana" font-style="normal" font-weight="normal" font-size="12" fill="#000000"><text x="12.25" y="20.00">Grey: subject</text></g>


<g font-family="Verdana" font-style="normal" font-weight="normal" font-size="12" fill="#000000"><text x="12.25" y="35.50">Red : clip</text></g>


</svg>

