<svg width="220px" height="220px" viewBox="0 0 220 220" version="1.1" xmlns="http://www.w3.org/2000/svg">
  <path d="M 189.26 20.28 L 189.99 20.35 190.72 20.47 191.44 20.63 192.15 20.83 192.84 21.08 193.52 21.38 194.18 21.72 194.81 22.09 195.42 22.50 196.00 22.95 196.56 23.45 197.08 23.96 197.57 24.52 198.02 25.10 198.43 25.71 198.81 26.34 199.14 27.00 199.44 27.68 199.69 28.37 199.89 29.08 200.05 29.80 200.17 30.53 200.24 31.26 200.26 32.00 200.26 188.52 200.24 189.26 200.17 189.99 200.05 190.72 199.89 191.44 199.69 192.15 199.44 192.84 199.14 193.52 198.81 194.18 198.43 194.81 198.02 195.42 197.57 196.00 197.08 196.56 196.56 197.08 196.00 197.57 195.42 198.02 194.81 198.43 194.18 198.81 193.52 199.14 192.84 199.44 192.15 199.69 191.44 199.89 190.72 200.05 189.99 200.17 189.26 200.24 188.52 200.26 32.00 200.26 31.25 200.24 30.50 200.17 29.75 200.04 29.03 199.88 28.30 199.67 27.59 199.40 26.91 199.09 26.24 198.75 25.60 198.36 24.98 197.93 24.39 197.46 23.83 196.96 23.31 196.41 22.82 195.84 22.37 195.24 21.96 194.61 21.59 193.95 21.26 193.27 20.98 192.58 20.75 191.86 20.56 191.14 20.41 190.39 20.32 189.65 20.27 188.90 20.27 188.15 20.32 187.39 20.41 186.65 20.56 185.91 20.75 185.18 20.98 184.47 21.26 183.77 21.59 183.09 21.96 182.43 22.37 181.81 22.82 181.20 23.31 180.63 23.83 180.09 24.39 179.58 24.98 179.11 25.60 178.68 26.24 178.29 26.91 177.95 27.59 177.64 28.30 177.38 29.03 177.17 29.75 177.00 30.50 176.88 31.25 176.81 32.00 176.78 176.78 176.78 176.78 43.74 32.00 43.74 31.25 43.72 30.50 43.65 29.75 43.52 29.03 43.36 28.30 43.14 27.59 42.88 26.91 42.57 26.24 42.23 25.60 41.84 24.98 41.41 24.39 40.94 23.83 40.44 23.31 39.89 22.82 39.32 22.37 38.71 21.96 38.09 21.59 37.43 21.26 36.75 20.98 36.05 20.75 35.34 20.56 34.61 20.41 33.87 20.32 33.13 20.27 32.38 20.27 31.62 20.32 30.87 20.41 30.13 20.56 29.39 20.75 28.66 20.98 27.95 21.26 27.25 21.59 26.57 21.96 25.91 22.37 25.29 22.82 24.68 23.31 24.11 23.83 23.56 24.39 23.06 24.98 22.59 25.60 22.16 26.24 21.77 26.91 21.43 27.59 21.12 28.30 20.86 29.03 20.64 29.75 20.48 30.50 20.35 31.25 20.28 32.00 20.26 188.52 20.26 Z"
    style="fill:#0000FF; fill-opacity:0.13; fill-rule:nonzero; stroke:#0000FF; stroke-opacity:0.50; stroke-width:1.00;"/>

  <path d="M 32.00 32.00 L 188.52 32.00 188.52 188.52 32.00 188.52 "
    style="fill:none; stroke:#000000; stroke-opacity:1.00; stroke-width:3.00; "/>

  <g font-family="Verdana" font-style="normal" font-weight="normal" font-size="11" fill="#000000"><text x="63.30" y="110.26">EndType.Round</text></g>
</svg>

