<svg width="220px" height="220px" viewBox="0 0 220 220" version="1.1" xmlns="http://www.w3.org/2000/svg">
  <path d="M 189.26 20.28 L 189.99 20.35 190.72 20.47 191.44 20.63 192.15 20.83 192.84 21.08 193.52 21.38 194.18 21.72 194.81 22.09 195.42 22.50 196.00 22.95 196.56 23.45 197.08 23.96 197.57 24.52 198.02 25.10 198.43 25.71 198.81 26.34 199.14 27.00 199.44 27.68 199.69 28.37 199.89 29.08 200.05 29.80 200.17 30.53 200.24 31.26 200.26 32.00 200.26 188.52 200.24 189.26 200.17 189.99 200.05 190.72 199.89 191.44 199.69 192.15 199.44 192.84 199.14 193.52 198.81 194.18 198.43 194.81 198.02 195.42 197.57 196.00 197.08 196.56 196.56 197.08 196.00 197.57 195.42 198.02 194.81 198.43 194.18 198.81 193.52 199.14 192.84 199.44 192.15 199.69 191.44 199.89 190.72 200.05 189.99 200.17 189.26 200.24 188.52 200.26 32.00 200.26 31.26 200.24 30.53 200.17 29.80 200.05 29.08 199.89 28.37 199.69 27.68 199.44 27.00 199.14 26.34 198.81 25.71 198.43 25.10 198.02 24.52 197.57 23.96 197.08 23.45 196.56 22.95 196.00 22.50 195.42 22.09 194.81 21.72 194.18 21.38 193.52 21.08 192.84 20.83 192.15 20.63 191.44 20.47 190.72 20.35 189.99 20.28 189.26 20.26 188.52 20.26 32.00 20.28 31.26 20.35 30.53 20.47 29.80 20.63 29.08 20.83 28.37 21.08 27.68 21.38 27.00 21.72 26.34 22.09 25.71 22.50 25.10 22.95 24.52 23.45 23.96 23.96 23.45 24.52 22.95 25.10 22.50 25.71 22.09 26.34 21.72 27.00 21.38 27.68 21.08 28.37 20.83 29.08 20.63 29.80 20.47 30.53 20.35 31.26 20.28 32.00 20.26 188.52 20.26 Z"
    style="fill:#0000FF; fill-opacity:0.13; fill-rule:nonzero; stroke:#0000FF; stroke-opacity:0.50; stroke-width:1.00;"/>

  <path d="M 32.00 32.00 L 188.52 32.00 188.52 188.52 32.00 188.52 "
    style="fill:none; stroke:#000000; stroke-opacity:1.00; stroke-width:3.00; "/>

  <g font-family="Verdana" font-style="normal" font-weight="normal" font-size="11" fill="#000000"><text x="63.30" y="110.26">EndType.Polygon</text></g>
</svg>

