<svg width="240px" height="240px" viewBox="0 0 240 240" version="1.1" xmlns="http://www.w3.org/2000/svg">
  <path d="M 209.83 119.68 L 19.62 181.48 137.17 19.68 137.17 219.68 19.62 57.88 Z"
    style="fill:#000000; fill-opacity:0.04; fill-rule:evenodd; stroke:#000000; stroke-opacity:0.38; stroke-width:1.00;"/>

  <path d="M 113.53 119.68 L 112.77 123.28 110.60 126.26 107.42 128.10 103.75 128.49 100.25 127.35 97.52 124.88 96.02 121.52 96.02 117.84 97.52 114.48 100.25 112.01 103.75 110.87 107.42 111.26 110.60 113.10 112.77 116.08 ZM 67.05 86.48 L 66.28 90.08 64.12 93.06 60.93 94.90 57.27 95.28 53.77 94.14 51.03 91.68 49.53 88.32 49.53 84.64 51.03 81.27 53.77 78.81 57.27 77.67 60.93 78.06 64.12 79.90 66.28 82.87 Z"
    style="fill:#00FF00; fill-opacity:0.13; fill-rule:evenodd; stroke:#009900; stroke-opacity:1.00; stroke-width:1.20;"/>

  <path d="M 136.78 53.05 L 133.33 45.08 140.23 45.08 Z"
    style="fill:#00FF00; fill-opacity:0.25; fill-rule:evenodd; stroke:#009900; stroke-opacity:1.00; stroke-width:1.00;"/>

  <path d="M 45.79 145.24 L 43.96 153.73 38.35 149.72 Z"
    style="fill:#00FF00; fill-opacity:0.25; fill-rule:evenodd; stroke:#009900; stroke-opacity:1.00; stroke-width:1.00;"/>

  <path d="M 107.09 178.47 L 114.57 182.88 108.99 186.95 Z"
    style="fill:#00FF00; fill-opacity:0.25; fill-rule:evenodd; stroke:#009900; stroke-opacity:1.00; stroke-width:1.00;"/>

  <path d="M 178.35 109.15 L 169.71 109.96 171.85 103.40 Z"
    style="fill:#00FF00; fill-opacity:0.25; fill-rule:evenodd; stroke:#009900; stroke-opacity:1.00; stroke-width:1.00;"/>

  <path d="M 38.27 112 L 82 112 "
    style="fill:none; stroke:#990000; stroke-opacity:1.00; stroke-width:1.00; stroke-dasharray: 5 5 ;"/>

  <path d="M 90 112 L 80 116 80 108 Z"
    style="fill:#FF0000; fill-opacity:0.25; fill-rule:evenodd; stroke:#990000; stroke-opacity:1.00; stroke-width:1.00;"/>

  <g font-family="Verdana" font-style="normal" font-weight="700" font-size="11" fill="#000000"><text x="54.87" y="89.80">1</text></g>
  <g font-family="Verdana" font-style="normal" font-weight="700" font-size="11" fill="#000000"><text x="101.36" y="123.00">2</text></g>
</svg>

