<?xml version="1.0" standalone="no"?>
<!DOCTYPE svg PUBLIC "-//W3C//DTD SVG 1.1//EN"
"http://www.w3.org/Graphics/SVG/1.1/DTD/svg11.dtd">

 <svg width="300px" height="320px" viewBox="0 0 300 320" version="1.1" xmlns="http://www.w3.org/2000/svg">

  <path d=" M 244.07 165.60 L 244.07 165.60 L 243.84 172.67 L 243.17 179.84 L 242.05 186.79 L 240.48 193.74 L 238.46 200.58 L 236.00 207.30 L 233.19 213.80 L 229.94 220.08 L 226.24 226.24 L 222.21 232.07 L 217.84 237.68 L 213.13 242.95 L 208.09 247.99 L 202.71 252.59 L 196.99 256.96 L 191.05 260.88 L 184.88 264.36 L 178.49 267.61 L 171.99 270.30 L 165.27 272.65 L 158.43 274.56 L 151.48 276.01 L 144.42 277.02 L 137.36 277.58 L 130.18 277.69 L 123.12 277.36 L 116.06 276.57 L 109.00 275.34 L 102.16 273.66 L 95.32 271.53 L 88.71 268.95 L 82.21 266.04 L 75.93 262.67 L 69.88 258.98 L 64.05 254.83 L 58.56 250.34 L 53.40 245.52 L 48.47 240.37 L 43.88 234.88 L 39.62 229.16 L 35.80 223.22 L 32.33 216.94 L 29.30 210.55 L 26.61 203.94 L 24.48 197.21 L 22.69 190.26 L 21.35 183.31 L 20.45 176.25 L 20.00 169.19 L 20.00 162.02 L 20.45 154.96 L 21.35 147.89 L 22.69 140.94 L 24.48 134.00 L 26.61 127.27 L 29.30 120.66 L 32.33 114.27 L 35.80 107.99 L 39.62 102.05 L 43.88 96.33 L 48.47 90.84 L 53.40 85.68 L 58.56 80.86 L 64.05 76.38 L 69.88 72.23 L 75.93 68.53 L 82.21 65.17 L 88.71 62.26 L 95.32 59.68 L 102.16 57.55 L 109.00 55.87 L 116.06 54.64 L 123.12 53.85 L 130.18 53.51 L 137.36 53.63 L 144.42 54.19 L 151.48 55.20 L 158.43 56.65 L 165.27 58.56 L 171.99 60.91 L 178.49 63.60 L 184.88 66.85 L 191.05 70.33 L 196.99 74.25 L 202.71 78.62 L 208.09 83.22 L 213.13 88.26 L 217.84 93.53 L 222.21 99.14 L 226.24 104.96 L 229.94 111.13 L 233.19 117.41 L 236.00 123.91 L 238.46 130.63 L 240.48 137.47 L 242.05 144.42 L 243.17 151.37 L 243.84 158.54 z M 216.04 115.16 L 216.04 115.16 L 215.71 117.63 L 214.70 120.21 L 213.02 122.67 L 210.66 125.03 L 207.75 127.27 L 204.16 129.51 L 200.02 131.64 L 195.31 133.55 L 190.04 135.45 L 184.44 137.02 L 178.27 138.59 L 171.77 139.82 L 165.04 140.94 L 157.98 141.84 L 150.70 142.51 L 143.30 142.96 L 135.79 143.19 L 128.17 143.19 L 120.66 142.96 L 113.26 142.51 L 105.97 141.84 L 98.91 140.94 L 92.19 139.82 L 85.68 138.59 L 79.52 137.02 L 73.92 135.45 L 68.65 133.55 L 63.94 131.64 L 59.79 129.51 L 56.20 127.27 L 53.29 125.03 L 50.94 122.67 L 49.26 120.21 L 48.25 117.63 L 47.91 115.16 L 48.25 112.70 L 49.26 110.12 L 50.94 107.65 L 53.29 105.30 L 56.20 103.06 L 59.79 100.82 L 63.94 98.69 L 68.65 96.78 L 73.92 94.88 L 79.52 93.31 L 85.68 91.74 L 92.19 90.50 L 98.91 89.38 L 105.97 88.49 L 113.26 87.81 L 120.66 87.37 L 128.17 87.14 L 135.79 87.14 L 143.30 87.37 L 150.70 87.81 L 157.98 88.49 L 165.04 89.38 L 171.77 90.50 L 178.27 91.74 L 184.44 93.31 L 190.04 94.88 L 195.31 96.78 L 200.02 98.69 L 204.16 100.82 L 207.75 103.06 L 210.66 105.30 L 213.02 107.65 L 214.70 110.12 L 215.71 112.70 z M 216.04 216.04 L 216.04 216.04 L 215.71 218.51 L 214.70 221.09 L 213.02 223.55 L 210.66 225.91 L 207.75 228.15 L 204.16 230.39 L 200.02 232.52 L 195.31 234.43 L 190.04 236.33 L 184.44 237.90 L 178.27 239.47 L 171.77 240.70 L 165.04 241.83 L 157.98 242.72 L 150.70 243.39 L 143.30 243.84 L 135.79 244.07 L 128.17 244.07 L 120.66 243.84 L 113.26 243.39 L 105.97 242.72 L 98.91 241.83 L 92.19 240.70 L 85.68 239.47 L 79.52 237.90 L 73.92 236.33 L 68.65 234.43 L 63.94 232.52 L 59.79 230.39 L 56.20 228.15 L 53.29 225.91 L 50.94 223.55 L 49.26 221.09 L 48.25 218.51 L 47.91 216.04 L 48.25 213.58 L 49.26 211.00 L 50.94 208.53 L 53.29 206.18 L 56.20 203.94 L 59.79 201.70 L 63.94 199.57 L 68.65 197.66 L 73.92 195.76 L 79.52 194.19 L 85.68 192.62 L 92.19 191.39 L 98.91 190.26 L 105.97 189.37 L 113.26 188.69 L 120.66 188.25 L 128.17 188.02 L 135.79 188.02 L 143.30 188.25 L 150.70 188.69 L 157.98 189.37 L 165.04 190.26 L 171.77 191.39 L 178.27 192.62 L 184.44 194.19 L 190.04 195.76 L 195.31 197.66 L 200.02 199.57 L 204.16 201.70 L 207.75 203.94 L 210.66 206.18 L 213.02 208.53 L 214.70 211.00 L 215.71 213.58 z"
    style="fill:#00009c; fill-opacity:0.09; fill-rule:evenodd; stroke:#b3b3da; stroke-opacity:0.80; stroke-width:0.80;"/>
  <path d=" M 154.40 160.00 L 154.40 160.00 L 154.28 169.75 L 153.95 179.50 L 153.39 189.14 L 152.71 198.67 L 151.71 207.97 L 150.47 216.94 L 149.13 225.80 L 147.56 234.20 L 145.88 242.39 L 143.86 250.01 L 141.84 257.29 L 139.60 264.13 L 137.13 270.41 L 134.67 276.12 L 131.98 281.39 L 129.18 285.88 L 126.37 289.91 L 123.46 293.27 L 120.43 295.96 L 117.29 297.98 L 114.27 299.33 L 111.13 300.00 L 107.99 300.00 L 104.85 299.33 L 101.83 297.98 L 98.69 295.96 L 95.66 293.27 L 92.75 289.91 L 89.94 285.88 L 87.14 281.39 L 84.45 276.12 L 81.99 270.41 L 79.52 264.13 L 77.28 257.29 L 75.26 250.01 L 73.24 242.39 L 71.56 234.20 L 69.99 225.80 L 68.65 216.94 L 67.41 207.97 L 66.41 198.67 L 65.73 189.14 L 65.17 179.50 L 64.84 169.75 L 64.72 160.00 L 64.84 150.25 L 65.17 140.50 L 65.73 130.86 L 66.41 121.33 L 67.41 112.03 L 68.65 103.06 L 69.99 94.20 L 71.56 85.80 L 73.24 77.61 L 75.26 69.99 L 77.28 62.71 L 79.52 55.87 L 81.99 49.59 L 84.45 43.88 L 87.14 38.61 L 89.94 34.12 L 92.75 30.09 L 95.66 26.73 L 98.69 24.04 L 101.83 22.02 L 104.85 20.67 L 107.99 20.00 L 111.13 20.00 L 114.27 20.67 L 117.29 22.02 L 120.43 24.04 L 123.46 26.73 L 126.37 30.09 L 129.18 34.12 L 131.98 38.61 L 134.67 43.88 L 137.13 49.59 L 139.60 55.87 L 141.84 62.71 L 143.86 69.99 L 145.88 77.61 L 147.56 85.80 L 149.13 94.20 L 150.47 103.06 L 151.71 112.03 L 152.71 121.33 L 153.39 130.86 L 153.95 140.50 L 154.28 150.25 z"
    style="fill:#9c0000; fill-opacity:0.07; fill-rule:evenodd; stroke:#ffa07a; stroke-opacity:0.80; stroke-width:0.80;"/>
  <path d=" M 73.92 236.33 L 73.92 236.33 L 79.52 237.90 L 85.68 239.47 L 92.19 240.70 L 98.91 241.83 L 105.97 242.72 L 113.26 243.39 L 120.66 243.84 L 128.17 244.07 L 135.79 244.07 L 143.30 243.84 L 145.54 243.73 L 143.86 250.01 L 141.84 257.29 L 139.60 264.13 L 137.13 270.41 L 134.67 276.12 L 133.88 277.58 L 130.18 277.69 L 123.12 277.36 L 116.06 276.57 L 109.00 275.34 L 102.16 273.66 L 95.32 271.53 L 88.71 268.95 L 82.21 266.04 L 79.74 264.69 L 79.52 264.13 L 77.28 257.29 L 75.26 250.01 L 73.24 242.39 L 71.90 235.55 z M 68.65 133.55 L 68.65 133.55 L 73.92 135.45 L 79.52 137.02 L 85.68 138.59 L 92.19 139.82 L 98.91 140.94 L 105.97 141.84 L 113.26 142.51 L 120.66 142.96 L 128.17 143.19 L 135.79 143.19 L 143.30 142.96 L 150.70 142.51 L 154.06 142.18 L 154.28 150.25 L 154.40 160.00 L 154.28 169.75 L 153.95 179.50 L 153.39 188.92 L 150.70 188.69 L 143.30 188.25 L 135.79 188.02 L 128.17 188.02 L 120.66 188.25 L 113.26 188.69 L 105.97 189.37 L 98.91 190.26 L 92.19 191.39 L 85.68 192.62 L 79.52 194.19 L 73.92 195.76 L 68.65 197.66 L 66.41 198.56 L 65.73 189.14 L 65.17 179.50 L 64.84 169.75 L 64.72 160.00 L 64.84 150.25 L 65.17 140.50 L 65.62 132.31 z M 137.36 53.63 L 137.36 53.63 L 138.82 53.74 L 139.60 55.87 L 141.84 62.71 L 143.86 69.99 L 145.88 77.61 L 147.56 85.80 L 147.89 87.59 L 143.30 87.37 L 135.79 87.14 L 128.17 87.14 L 120.66 87.37 L 113.26 87.81 L 105.97 88.49 L 98.91 89.38 L 92.19 90.50 L 85.68 91.74 L 79.52 93.31 L 73.92 94.88 L 69.66 96.45 L 69.99 94.20 L 71.56 85.80 L 73.24 77.61 L 75.26 69.99 L 75.60 68.76 L 75.93 68.53 L 82.21 65.17 L 88.71 62.26 L 95.32 59.68 L 102.16 57.55 L 109.00 55.87 L 116.06 54.64 L 123.12 53.85 L 130.18 53.51 z"
    style="fill:#80ff9c; fill-opacity:1.00; fill-rule:evenodd; stroke:#003300; stroke-opacity:1.00; stroke-width:0.80;"/>
</svg>
