<svg width="240px" height="240px" viewBox="0 0 240 240" version="1.1" xmlns="http://www.w3.org/2000/svg">
  <path d="M 56.00 35.00 L 205.10 35.00 205.10 184.10 85.82 184.10 115.64 94.64 Z"
    style="fill:#0000FF; fill-opacity:0.13; fill-rule:nonzero; stroke:#0000FF; stroke-opacity:0.50; stroke-width:1.00;"/>

  <path d="M 206.22 20.13 L 207.32 20.25 208.42 20.46 209.50 20.75 210.54 21.12 211.57 21.57 212.55 22.09 213.49 22.68 214.39 23.34 215.24 24.07 216.03 24.86 216.76 25.71 217.41 26.61 218.01 27.55 218.53 28.53 218.98 29.56 219.35 30.60 219.64 31.68 219.84 32.78 219.96 33.88 220.01 35.00 220.01 184.10 219.96 185.22 219.84 186.32 219.64 187.42 219.35 188.50 218.98 189.54 218.53 190.57 218.01 191.55 217.41 192.49 216.76 193.39 216.03 194.24 215.24 195.03 214.39 195.76 213.49 196.41 212.55 197.01 211.57 197.53 210.54 197.98 209.50 198.35 208.42 198.64 207.32 198.84 206.22 198.96 205.10 199.01 85.82 199.01 84.69 198.96 83.57 198.84 82.46 198.62 81.38 198.34 80.30 197.95 79.27 197.50 78.29 196.97 77.34 196.35 76.43 195.68 75.58 194.94 74.79 194.13 74.06 193.27 73.40 192.36 72.82 191.39 72.30 190.39 71.86 189.35 71.51 188.27 71.24 187.18 71.04 186.07 70.94 184.95 70.91 183.81 70.97 182.68 71.12 181.56 71.36 180.46 71.67 179.39 98.58 98.66 45.46 45.54 44.68 44.71 43.98 43.83 43.34 42.89 42.79 41.90 42.30 40.87 41.90 39.82 41.57 38.74 41.33 37.62 41.16 36.51 41.09 35.37 41.11 34.24 41.21 33.12 41.39 32.00 41.67 30.90 42.01 29.83 42.45 28.77 42.97 27.77 43.55 26.80 44.21 25.88 44.94 25.01 45.73 24.19 46.58 23.44 47.49 22.76 48.44 22.15 49.44 21.61 50.47 21.15 51.54 20.78 52.63 20.48 53.75 20.27 54.87 20.13 56.00 20.09 205.10 20.09 Z"
    style="fill:#000000; fill-opacity:0.00; fill-rule:nonzero; stroke:#993300; stroke-opacity:1.00; stroke-width:2.00;"/>

  <g font-family="Verdana" font-style="normal" font-weight="normal" font-size="13" fill="#000000"><text x="85.82" y="216.90">JoinType.Round</text></g>
</svg>

