<?xml version="1.0" standalone="no"?>
<svg width="300px" height="300px" viewBox="0 0 300 300" version="1.1" xmlns="http://www.w3.org/2000/svg">

 <path d=" M 101.52 94.85 L 105.76 93.03 L 110.61 92.42 L 231.82 92.42 L 236.67 93.03 L 240.91 94.85 L 244.55 97.88 L 247.58 101.52 L 249.39 105.76 L 250.00 110.61 L 250.00 231.82 L 249.39 236.67 L 247.58 240.91 L 244.55 244.55 L 240.91 247.58 L 236.67 249.39 L 231.82 250.00 L 110.61 250.00 L 105.76 249.39 L 101.52 247.58 L 97.88 244.55 L 94.85 240.91 L 93.03 236.67 L 92.42 231.82 L 92.42 110.61 L 93.03 105.76 L 94.85 101.52 L 97.88 97.88 z M 128.79 128.79 L 128.79 213.64 L 213.64 213.64 L 213.64 128.79 z"
 style="fill:#80FF9C; fill-opacity:1.00; fill-rule:nonzero; stroke:#003300; stroke-opacity:1.00; stroke-width:0.80;"/>

 <path d=" M 128.79 110.61 L 128.18 115.45 L 126.36 119.70 L 123.33 123.33 L 119.70 126.36 L 115.45 128.18 L 110.61 128.79 L 105.76 128.18 L 101.52 126.36 L 97.88 123.33 L 94.85 119.70 L 93.03 115.45 L 92.42 110.61 L 93.03 105.76 L 94.85 101.52 L 97.88 97.88 L 101.52 94.85 L 105.76 93.03 L 110.61 92.42 L 115.45 93.03 L 119.70 94.85 L 123.33 97.88 L 126.36 101.52 L 128.18 105.76 z"
 style="fill:#00009C; fill-opacity:0.09; fill-rule:nonzero; stroke:#B3B3DA; stroke-opacity:0.80; stroke-width:0.80;"/>

 <path d=" M 50.00 50.00 L 171.21 50.00 L 171.21 171.21 L 50.00 171.21 L 50.00 50.00"
 style="fill:none; stroke:#003300;stroke-opacity:1.00; stroke-width:1.20;"/>

<g font-family="Verdana" font-size="9" fill="#000000">
<text x="50.00" y="50.00">0,0</text>
<text x="171.21" y="50.00">200,0</text>
<text x="171.21" y="171.21">200,200</text>
<text x="50.00" y="171.21">0,200</text>
<text x="50.00" y="50.00">0,0</text>
</g>

</svg>
