<?xml version="1.0" standalone="no"?>
<svg width="300px" height="300px" viewBox="0 0 300 300" version="1.1" xmlns="http://www.w3.org/2000/svg">

 <path d=" M 58.30 51.64 L 62.55 49.82 L 67.39 49.21 L 188.61 49.21 L 193.45 49.82 L 197.70 51.64 L 201.33 54.67 L 204.36 58.30 L 206.18 62.55 L 206.79 67.39 L 206.79 188.61 L 206.18 193.45 L 204.36 197.70 L 201.33 201.33 L 197.70 204.36 L 193.45 206.18 L 188.61 206.79 L 67.39 206.79 L 62.55 206.18 L 58.30 204.36 L 54.67 201.33 L 51.64 197.70 L 49.82 193.45 L 49.21 188.61 L 49.21 67.39 L 49.82 62.55 L 51.64 58.30 L 54.67 54.67 z M 85.58 85.58 L 85.58 170.42 L 170.42 170.42 L 170.42 85.58 z"
 style="fill:#80FF9C; fill-opacity:1.00; fill-rule:nonzero; stroke:#003300; stroke-opacity:1.00; stroke-width:0.80;"/>

 <path d=" M 206.79 188.61 L 206.18 193.45 L 204.36 197.70 L 201.33 201.33 L 197.70 204.36 L 193.45 206.18 L 188.61 206.79 L 183.76 206.18 L 179.52 204.36 L 175.88 201.33 L 172.85 197.70 L 171.03 193.45 L 170.42 188.61 L 171.03 183.76 L 172.85 179.52 L 175.88 175.88 L 179.52 172.85 L 183.76 171.03 L 188.61 170.42 L 193.45 171.03 L 197.70 172.85 L 201.33 175.88 L 204.36 179.52 L 206.18 183.76 z"
 style="fill:#00009C; fill-opacity:0.09; fill-rule:nonzero; stroke:#B3B3DA; stroke-opacity:0.80; stroke-width:0.80;"/>

 <path d=" M 128.00 128.00 L 249.21 128.00 L 249.21 249.21 L 128.00 249.21 L 128.00 128.00"
 style="fill:none; stroke:#003300;stroke-opacity:1.00; stroke-width:1.20;"/>

<g font-family="Verdana" font-size="9" fill="#000000">
<text x="128.00" y="128.00">0,0</text>
<text x="249.21" y="128.00">200,0</text>
<text x="249.21" y="249.21">200,200</text>
<text x="128.00" y="249.21">0,200</text>
<text x="128.00" y="128.00">0,0</text>
</g>

</svg>
