<?xml version="1.0" standalone="no"?>
<!DOCTYPE svg PUBLIC "-//W3C//DTD SVG 1.1//EN"
"http://www.w3.org/Graphics/SVG/1.1/DTD/svg11.dtd">

 <svg width="400px" height="300px" viewBox="0 0 400 300" version="1.1" xmlns="http://www.w3.org/2000/svg">

  <path d=" M 263.71 150.00 L 263.71 150.00 L 263.38 158.60 L 262.41 167.16 L 260.79 175.62 L 258.53 183.93 L 255.66 192.04 L 252.17 199.92 L 248.11 207.50 L 243.48 214.76 L 238.31 221.65 L 232.64 228.13 L 226.49 234.16 L 219.91 239.71 L 212.92 244.74 L 205.58 249.24 L 197.91 253.16 L 189.97 256.49 L 181.80 259.22 L 173.45 261.31 L 164.97 262.77 L 156.40 263.59 L 147.79 263.75 L 139.19 263.26 L 130.66 262.12 L 122.23 260.34 L 113.97 257.93 L 105.91 254.90 L 98.10 251.27 L 90.59 247.06 L 83.42 242.29 L 76.63 237.00 L 70.26 231.20 L 64.35 224.95 L 58.92 218.26 L 54.02 211.18 L 49.67 203.75 L 45.89 196.01 L 42.71 188.01 L 40.14 179.79 L 38.20 171.40 L 36.90 162.89 L 36.25 154.31 L 36.25 145.69 L 36.90 137.11 L 38.20 128.60 L 40.14 120.21 L 42.71 111.99 L 45.89 103.99 L 49.67 96.25 L 54.02 88.82 L 58.92 81.74 L 64.35 75.05 L 70.26 68.80 L 76.63 63.00 L 83.42 57.71 L 90.59 52.94 L 98.10 48.73 L 105.91 45.10 L 113.97 42.07 L 122.23 39.66 L 130.66 37.88 L 139.19 36.74 L 147.79 36.25 L 156.40 36.41 L 164.97 37.23 L 173.45 38.69 L 181.80 40.78 L 189.97 43.51 L 197.91 46.84 L 205.58 50.76 L 212.92 55.26 L 219.91 60.29 L 226.49 65.84 L 232.64 71.87 L 238.31 78.35 L 243.48 85.24 L 248.11 92.50 L 252.17 100.08 L 255.66 107.96 L 258.53 116.07 L 260.79 124.38 L 262.41 132.84 L 263.38 141.40 z M 214.62 143.42 L 214.62 143.42 L 213.62 136.91 L 211.97 130.54 L 209.68 124.36 L 206.78 118.45 L 203.30 112.86 L 199.27 107.65 L 194.73 102.88 L 189.73 98.59 L 184.33 94.83 L 178.57 91.63 L 172.52 89.04 L 166.23 87.06 L 159.78 85.74 L 153.23 85.07 L 146.65 85.07 L 140.10 85.74 L 133.64 87.06 L 127.36 89.04 L 121.31 91.63 L 115.55 94.83 L 110.15 98.59 L 105.15 102.88 L 100.61 107.65 L 96.58 112.86 L 93.10 118.45 L 90.20 124.36 L 87.91 130.54 L 86.26 136.91 L 85.26 143.42 L 84.93 150.00 L 85.26 156.58 L 86.26 163.09 L 87.91 169.46 L 90.20 175.64 L 93.10 181.55 L 96.58 187.14 L 100.61 192.35 L 105.15 197.12 L 110.15 201.41 L 115.55 205.17 L 121.31 208.37 L 127.36 210.96 L 133.64 212.94 L 140.10 214.26 L 146.65 214.93 L 153.23 214.93 L 159.78 214.26 L 166.23 212.94 L 172.52 210.96 L 178.57 208.37 L 184.33 205.17 L 189.73 201.41 L 194.73 197.12 L 199.27 192.35 L 203.30 187.14 L 206.78 181.55 L 209.68 175.64 L 211.97 169.46 L 213.62 163.09 L 214.62 156.58 L 214.95 150.00 z"
    style="fill:#00009c; fill-opacity:0.09; fill-rule:nonzero; stroke:#b3b3da; stroke-opacity:0.80; stroke-width:0.80;"/>
  <path d=" M 148.09 20.00 L 148.09 20.00 L 156.70 20.17 L 157.11 20.18 L 157.52 20.20 L 157.93 20.24 L 166.50 21.05 L 166.91 21.09 L 167.32 21.15 L 167.72 21.21 L 176.21 22.67 L 176.61 22.75 L 177.01 22.83 L 177.41 22.92 L 185.76 25.02 L 186.16 25.13 L 186.55 25.24 L 186.94 25.37 L 195.11 28.09 L 195.50 28.22 L 195.88 28.37 L 196.26 28.52 L 204.20 31.85 L 204.58 32.02 L 204.95 32.19 L 205.32 32.37 L 212.98 36.30 L 213.34 36.49 L 213.70 36.69 L 214.05 36.90 L 221.40 41.39 L 221.75 41.61 L 222.09 41.84 L 222.43 42.07 L 229.41 47.11 L 229.74 47.35 L 230.06 47.60 L 230.38 47.86 L 236.96 53.41 L 237.28 53.68 L 237.58 53.96 L 237.87 54.24 L 244.02 60.27 L 244.31 60.56 L 244.59 60.86 L 244.87 61.16 L 250.54 67.64 L 250.80 67.95 L 251.06 68.27 L 251.31 68.60 L 256.48 75.48 L 256.72 75.82 L 256.95 76.15 L 257.18 76.50 L 261.81 83.75 L 262.02 84.10 L 262.23 84.46 L 262.43 84.82 L 266.50 92.41 L 266.69 92.77 L 266.87 93.14 L 267.04 93.51 L 270.52 101.39 L 270.68 101.76 L 270.83 102.14 L 270.97 102.53 L 273.85 110.64 L 273.98 111.03 L 274.11 111.42 L 274.22 111.82 L 276.47 120.13 L 276.58 120.52 L 276.67 120.93 L 276.75 121.33 L 278.37 129.78 L 278.44 130.19 L 278.50 130.59 L 278.55 131.00 L 279.53 139.55 L 279.57 139.96 L 279.60 140.37 L 279.62 140.78 L 279.95 149.39 L 279.96 149.80 L 279.96 150.20 L 279.95 150.61 L 279.62 159.22 L 279.60 159.63 L 279.57 160.04 L 279.53 160.45 L 278.55 169.00 L 278.50 169.41 L 278.44 169.81 L 278.37 170.22 L 276.75 178.67 L 276.67 179.07 L 276.58 179.48 L 276.47 179.87 L 274.22 188.18 L 274.11 188.58 L 273.98 188.97 L 273.85 189.36 L 270.97 197.47 L 270.83 197.86 L 270.68 198.24 L 270.52 198.61 L 267.04 206.49 L 266.87 206.86 L 266.69 207.23 L 266.50 207.59 L 262.43 215.18 L 262.23 215.54 L 262.02 215.90 L 261.81 216.25 L 257.18 223.50 L 256.95 223.85 L 256.72 224.18 L 256.48 224.52 L 251.31 231.40 L 251.06 231.73 L 250.80 232.05 L 250.54 232.36 L 244.87 238.84 L 244.59 239.14 L 244.31 239.44 L 244.02 239.73 L 237.87 245.76 L 237.58 246.04 L 237.28 246.32 L 236.96 246.59 L 230.38 252.14 L 230.06 252.40 L 229.74 252.65 L 229.41 252.89 L 222.43 257.93 L 222.09 258.16 L 221.75 258.39 L 221.40 258.61 L 214.05 263.10 L 213.70 263.31 L 213.34 263.51 L 212.98 263.70 L 205.32 267.63 L 204.95 267.81 L 204.58 267.98 L 204.20 268.15 L 196.26 271.48 L 195.88 271.63 L 195.50 271.78 L 195.11 271.91 L 186.94 274.63 L 186.55 274.76 L 186.16 274.87 L 185.76 274.98 L 177.41 277.08 L 177.01 277.17 L 176.61 277.25 L 176.21 277.33 L 167.72 278.79 L 167.32 278.85 L 166.91 278.91 L 166.50 278.95 L 157.93 279.76 L 157.52 279.80 L 157.11 279.82 L 156.70 279.83 L 148.09 280.00 L 147.68 280.00 L 147.27 279.99 L 146.87 279.97 L 138.27 279.49 L 137.86 279.46 L 137.45 279.42 L 137.04 279.37 L 128.51 278.23 L 128.10 278.17 L 127.70 278.10 L 127.30 278.02 L 118.87 276.24 L 118.47 276.15 L 118.07 276.05 L 117.68 275.94 L 109.41 273.53 L 109.02 273.41 L 108.63 273.28 L 108.25 273.14 L 100.19 270.12 L 99.80 269.97 L 99.43 269.81 L 99.05 269.64 L 91.25 266.01 L 90.87 265.83 L 90.51 265.64 L 90.15 265.45 L 82.64 261.23 L 82.28 261.03 L 81.94 260.82 L 81.59 260.60 L 74.42 255.83 L 74.08 255.60 L 73.75 255.36 L 73.42 255.11 L 66.63 249.81 L 66.31 249.56 L 66.00 249.29 L 65.69 249.02 L 59.32 243.23 L 59.02 242.95 L 58.73 242.66 L 58.44 242.37 L 52.53 236.11 L 52.25 235.81 L 51.98 235.50 L 51.72 235.18 L 46.30 228.50 L 46.04 228.17 L 45.80 227.84 L 45.56 227.51 L 40.66 220.43 L 40.43 220.09 L 40.21 219.74 L 40.00 219.39 L 35.64 211.96 L 35.44 211.61 L 35.25 211.25 L 35.06 210.88 L 31.29 203.14 L 31.11 202.77 L 30.94 202.40 L 30.79 202.02 L 27.61 194.02 L 27.46 193.63 L 27.32 193.25 L 27.20 192.85 L 24.63 184.64 L 24.51 184.25 L 24.40 183.85 L 24.31 183.45 L 22.37 175.06 L 22.28 174.66 L 22.20 174.26 L 22.14 173.85 L 20.84 165.34 L 20.78 164.94 L 20.73 164.53 L 20.70 164.12 L 20.05 155.54 L 20.02 155.13 L 20.00 154.72 L 20.00 154.31 L 20.00 145.69 L 20.00 145.28 L 20.02 144.87 L 20.05 144.46 L 20.70 135.88 L 20.73 135.47 L 20.78 135.06 L 20.84 134.66 L 22.14 126.15 L 22.20 125.74 L 22.28 125.34 L 22.37 124.94 L 24.31 116.55 L 24.40 116.15 L 24.51 115.75 L 24.63 115.36 L 27.20 107.15 L 27.32 106.75 L 27.46 106.37 L 27.61 105.98 L 30.79 97.98 L 30.94 97.60 L 31.11 97.23 L 31.29 96.86 L 35.06 89.12 L 35.25 88.75 L 35.44 88.39 L 35.64 88.04 L 40.00 80.61 L 40.21 80.26 L 40.43 79.91 L 40.66 79.57 L 45.56 72.49 L 45.80 72.16 L 46.04 71.83 L 46.30 71.50 L 51.72 64.82 L 51.98 64.50 L 52.25 64.19 L 52.53 63.89 L 58.44 57.63 L 58.73 57.34 L 59.02 57.05 L 59.32 56.77 L 65.69 50.98 L 66.00 50.71 L 66.31 50.44 L 66.63 50.19 L 73.42 44.89 L 73.75 44.64 L 74.08 44.40 L 74.42 44.17 L 81.59 39.40 L 81.94 39.18 L 82.28 38.97 L 82.64 38.77 L 90.15 34.55 L 90.51 34.36 L 90.87 34.17 L 91.25 33.99 L 99.05 30.36 L 99.43 30.19 L 99.80 30.03 L 100.19 29.88 L 108.25 26.86 L 108.63 26.72 L 109.02 26.59 L 109.41 26.47 L 117.68 24.06 L 118.07 23.95 L 118.47 23.85 L 118.87 23.76 L 127.30 21.98 L 127.70 21.90 L 128.10 21.83 L 128.51 21.77 L 137.04 20.63 L 137.45 20.58 L 137.86 20.54 L 138.27 20.51 L 146.87 20.03 L 147.27 20.01 L 147.68 20.00 z M 147.48 101.32 L 147.48 101.32 L 142.55 101.83 L 137.72 102.82 L 133.02 104.29 L 128.47 106.25 L 124.16 108.64 L 120.11 111.46 L 116.36 114.68 L 112.96 118.26 L 109.94 122.16 L 107.33 126.34 L 105.15 130.79 L 103.44 135.41 L 102.20 140.18 L 101.45 145.08 L 101.20 150.00 L 101.45 154.92 L 102.20 159.82 L 103.44 164.59 L 105.15 169.21 L 107.33 173.66 L 109.94 177.84 L 112.96 181.74 L 116.36 185.32 L 120.11 188.54 L 124.16 191.36 L 128.47 193.75 L 133.02 195.71 L 137.72 197.18 L 142.55 198.17 L 147.48 198.68 L 152.40 198.68 L 157.33 198.17 L 162.16 197.18 L 166.86 195.71 L 171.41 193.75 L 175.72 191.36 L 179.77 188.54 L 183.52 185.32 L 186.92 181.74 L 189.94 177.84 L 192.55 173.66 L 194.73 169.21 L 196.44 164.59 L 197.68 159.82 L 198.43 154.92 L 198.68 150.00 L 198.43 145.08 L 197.68 140.18 L 196.44 135.41 L 194.73 130.79 L 192.55 126.34 L 189.94 122.16 L 186.92 118.26 L 183.52 114.68 L 179.77 111.46 L 175.72 108.64 L 171.41 106.25 L 166.86 104.29 L 162.16 102.82 L 157.33 101.83 L 152.40 101.32 z"
    style="fill:#66ff66; fill-opacity:0.27; fill-rule:nonzero; stroke:#003300; stroke-opacity:1.00; stroke-width:1.20;"/>
</svg>
