<?xml version="1.0" standalone="no"?>
<!DOCTYPE svg PUBLIC "-/W3C/DTD SVG 1.0/EN"
"http://www.w3.org/TR/2001/REC-SVG-20010904/DTD/svg10.dtd">

<svg width="220px" height="220px" viewBox="0 0 220 220" version="1.1" xmlns="http://www.w3.org/2000/svg">


 <path d="
M 68.06 163.24 L 
62.76 62.65 
163.35 57.35 
163.35 168.53 
Z
" style="fill:#000000; fill-opacity:0.04; fill-rule:evenodd; stroke:#000000; stroke-opacity:0.38; stroke-width:1.00;"/>


 <path d="
M 78.65 200.29 L 
115.71 142.06 
20.41 62.65 
115.71 20.29 
179.24 136.76 
Z
" style="fill:#FF6600; fill-opacity:0.06; fill-rule:evenodd; stroke:#996600; stroke-opacity:0.25; stroke-width:1.00;"/>


 <path d="
M 20.41 157.94 L 
28.11 155.74 
35.32 153.61 
42.07 151.54 
48.37 149.53 
54.23 147.59 
59.67 145.69 
64.70 143.85 
69.34 142.06 
77.51 138.61 
84.30 135.33 
89.82 132.18 
94.20 129.15 
97.55 126.22 
100.00 123.35 
101.67 120.53 
102.68 117.74 
103.14 114.94 
103.18 112.12 
102.47 106.32 
101.51 100.15 
101.24 96.87 
101.27 93.42 
101.72 89.79 
102.70 85.94 
104.35 81.87 
106.77 77.54 
110.10 72.93 
114.44 68.01 
119.92 62.78 
126.67 57.19 
134.79 51.23 
139.41 48.10 
144.42 44.87 
149.83 41.54 
155.66 38.10 
161.93 34.55 
168.65 30.88 
M 163.35 200.29 L 
36.29 110.29 
189.82 110.29 
" style="fill:none; stroke:#0000FF; stroke-opacity:0.16; stroke-width:1.00;"/>


 <path d="
M 163.35 168.53 L 
131.73 166.77 
163.35 146.79 
Z
M 115.71 142.06 L 
101.06 165.07 
68.06 163.24 
64.70 99.56 
Z
M 163.35 107.65 L 
136.68 58.76 
163.35 57.35 
Z
" style="fill:#00FF00; fill-opacity:0.13; fill-rule:evenodd; stroke:#009900; stroke-opacity:1.00; stroke-width:1.80;"/>


 <path d="
M 163.35 200.29 L 
123.42 172.01 
M 104.97 158.94 L 
36.29 110.29 
77.59 110.29 
M 20.41 157.94 L 
28.11 155.74 
35.32 153.61 
42.06 151.55 
48.36 149.53 
54.23 147.59 
59.66 145.69 
64.70 143.85 
69.34 142.06 
77.51 138.61 
84.30 135.32 
89.82 132.18 
94.20 129.15 
97.13 126.59 
M 164.79 110.29 L 
189.82 110.29 
M 133.21 52.39 L 
134.79 51.23 
139.41 48.10 
144.41 44.87 
149.83 41.53 
155.66 38.10 
161.92 34.55 
168.65 30.88 
" style="fill:none; stroke:#009900; stroke-opacity:1.00; stroke-width:1.80;"/>


<g font-family="Verdana" font-style="normal" font-weight="normal" font-size="12" fill="#000000"><text x="72.94" y="215.88">Difference</text></g>


</svg>

