<?xml version="1.0" standalone="no"?>
<!DOCTYPE svg PUBLIC "-//W3C//DTD SVG 1.1//EN"
"http://www.w3.org/Graphics/SVG/1.1/DTD/svg11.dtd">

 <svg width="225px" height="360px" viewBox="0 0 225 360" version="1.1" xmlns="http://www.w3.org/2000/svg">

  <path d=" M 132.81 322.07 L 132.81 322.07 L 138.08 320.72 L 142.76 317.98 L 145.25 313.25 L 144.87 308.31 L 143.65 303.49 L 141.99 298.79 L 140.47 295.05 L 143.74 294.68 L 147.01 294.32 L 150.98 293.84 L 154.94 293.29 L 156.77 294.90 L 158.59 298.50 L 161.93 300.75 L 167.64 301.14 L 173.38 301.12 L 179.12 300.99 L 184.87 300.77 L 190.59 300.46 L 196.32 300.05 L 201.99 299.22 L 205.00 294.65 L 203.14 289.15 L 199.59 284.49 L 195.31 280.48 L 192.17 277.77 L 190.80 274.03 L 191.95 270.68 L 194.81 268.40 L 199.25 264.63 L 202.48 259.81 L 203.81 254.16 L 203.98 248.33 L 203.68 242.51 L 203.17 236.75 L 202.53 231.00 L 201.83 225.25 L 201.06 219.52 L 200.21 213.80 L 199.14 208.11 L 196.68 203.12 L 193.36 198.63 L 189.75 194.37 L 186.00 190.22 L 182.18 186.15 L 178.08 181.90 L 173.91 177.72 L 169.69 173.59 L 165.43 169.50 L 161.13 165.45 L 156.80 161.44 L 152.42 157.47 L 147.97 153.60 L 143.30 149.99 L 138.53 147.95 L 133.61 146.31 L 128.05 144.56 L 123.28 141.35 L 120.90 136.06 L 119.21 130.47 L 117.44 124.98 L 115.26 119.63 L 112.46 114.59 L 113.40 111.03 L 116.69 105.63 L 119.35 101.65 L 122.52 98.07 L 125.85 94.62 L 129.19 91.17 L 132.44 87.64 L 135.50 83.94 L 138.59 78.33 L 141.49 72.61 L 144.33 66.86 L 147.13 61.09 L 149.90 55.31 L 152.62 49.51 L 155.29 43.68 L 157.77 37.76 L 158.73 34.00 L 159.24 30.15 L 157.09 24.71 L 153.43 21.73 L 148.99 20.16 L 144.26 20.00 L 138.45 21.03 L 133.00 23.27 L 127.97 26.38 L 123.32 30.03 L 118.99 34.04 L 114.89 38.39 L 111.19 43.08 L 107.87 48.05 L 104.82 53.20 L 101.96 58.44 L 99.19 63.75 L 96.56 68.81 L 93.87 73.85 L 90.98 78.77 L 89.08 73.36 L 88.33 67.50 L 87.91 61.62 L 87.56 55.56 L 86.64 49.58 L 84.79 43.82 L 83.05 38.99 L 81.21 34.19 L 79.17 29.48 L 76.53 25.10 L 71.15 23.84 L 66.86 27.55 L 65.31 33.35 L 64.75 39.35 L 64.47 45.36 L 64.30 51.38 L 64.18 57.41 L 64.10 62.34 L 64.02 67.28 L 63.94 72.21 L 63.86 77.15 L 60.81 77.55 L 56.00 78.46 L 51.36 80.00 L 47.06 82.33 L 43.31 85.47 L 40.44 89.48 L 37.91 93.72 L 35.50 98.03 L 33.16 102.39 L 30.19 107.88 L 27.12 113.32 L 23.76 118.57 L 21.07 122.65 L 20.00 127.42 L 20.01 132.33 L 20.56 137.22 L 21.64 142.12 L 24.21 146.41 L 27.75 149.99 L 31.35 153.66 L 33.42 158.34 L 34.55 162.45 L 32.74 167.84 L 30.96 173.81 L 29.60 179.89 L 28.70 186.06 L 28.32 192.28 L 28.56 198.50 L 29.56 204.65 L 31.18 210.51 L 32.94 216.33 L 34.76 222.13 L 36.57 228.05 L 38.17 234.05 L 39.57 240.09 L 40.74 246.18 L 41.72 252.30 L 42.51 258.45 L 42.78 264.32 L 42.15 270.15 L 40.70 275.84 L 38.62 281.33 L 36.12 286.65 L 33.34 291.82 L 30.38 296.89 L 27.21 302.23 L 24.23 307.67 L 22.61 313.59 L 25.59 317.16 L 30.63 317.73 L 35.71 317.82 L 40.35 317.78 L 44.98 317.47 L 49.51 316.50 L 54.24 314.89 L 58.11 311.80 L 60.47 307.39 L 62.37 302.76 L 63.73 299.33 L 65.09 295.91 L 70.02 295.66 L 74.94 295.40 L 79.87 295.14 L 84.94 294.87 L 90.02 294.55 L 95.08 294.19 L 100.14 293.73 L 106.10 293.53 L 107.27 296.67 L 108.25 299.89 L 109.94 305.82 L 108.60 310.32 L 107.48 315.42 L 107.76 320.57 L 111.58 322.40 L 115.95 322.68 L 120.33 322.69 L 126.58 322.53 L 132.81 322.07 L 132.81 322.07 z M 144.23 59.67 L 144.23 59.67 L 146.97 53.93 L 149.69 48.13 L 152.34 42.33 L 154.69 36.72 L 155.54 33.42 L 155.92 30.56 L 154.39 26.69 L 151.82 24.60 L 148.38 23.38 L 144.47 23.25 L 139.36 24.16 L 134.49 26.16 L 129.81 29.04 L 125.44 32.47 L 121.26 36.35 L 117.32 40.53 L 113.83 44.94 L 110.60 49.78 L 107.61 54.85 L 104.80 60.00 L 99.43 70.30 L 96.66 75.50 L 93.77 80.41 L 93.37 80.95 L 93.14 81.18 L 92.88 81.39 L 92.59 81.57 L 92.29 81.72 L 91.98 81.84 L 91.67 81.93 L 91.34 81.98 L 90.67 81.99 L 90.34 81.94 L 90.02 81.85 L 89.70 81.74 L 89.12 81.41 L 88.86 81.21 L 88.40 80.72 L 88.21 80.44 L 88.05 80.15 L 87.93 79.84 L 86.02 74.43 L 85.91 73.99 L 85.10 67.73 L 84.68 61.84 L 84.33 55.90 L 83.48 50.33 L 81.71 44.81 L 80.02 40.15 L 78.18 35.35 L 76.29 30.96 L 74.47 27.94 L 72.02 27.37 L 69.73 29.35 L 68.51 33.92 L 67.98 39.64 L 67.70 45.46 L 67.53 51.48 L 67.41 57.47 L 67.09 77.21 L 67.01 77.85 L 66.81 78.48 L 66.66 78.77 L 66.48 79.05 L 66.27 79.30 L 66.04 79.54 L 65.51 79.93 L 64.92 80.20 L 64.60 80.30 L 64.28 80.36 L 61.26 80.75 L 56.85 81.60 L 52.64 82.99 L 48.87 85.03 L 45.71 87.67 L 43.16 91.25 L 40.69 95.38 L 38.36 99.56 L 33.04 109.42 L 29.93 114.91 L 26.47 120.35 L 24.10 123.94 L 23.24 127.79 L 23.25 132.14 L 23.75 136.70 L 24.68 140.89 L 26.80 144.42 L 33.66 151.40 L 34.03 151.84 L 34.31 152.35 L 36.47 157.25 L 37.74 161.90 L 37.79 162.54 L 37.70 163.17 L 37.62 163.47 L 35.80 168.87 L 34.10 174.61 L 32.79 180.46 L 31.92 186.41 L 31.56 192.28 L 31.79 198.22 L 32.72 203.92 L 34.28 209.58 L 36.03 215.36 L 37.85 221.15 L 39.69 227.22 L 41.33 233.32 L 42.72 239.35 L 43.94 245.66 L 44.93 251.88 L 45.72 258.04 L 46.01 264.41 L 45.37 270.49 L 45.29 270.95 L 43.79 276.82 L 41.65 282.48 L 38.97 288.18 L 36.14 293.45 L 33.18 298.52 L 30.05 303.78 L 27.25 308.91 L 26.17 312.81 L 27.24 314.08 L 30.84 314.49 L 35.75 314.58 L 40.21 314.55 L 44.54 314.25 L 48.66 313.38 L 52.66 312.02 L 55.57 309.69 L 57.53 306.02 L 59.38 301.53 L 62.08 294.72 L 62.22 294.41 L 62.39 294.12 L 62.59 293.85 L 63.07 293.38 L 63.64 293.01 L 64.26 292.78 L 64.59 292.71 L 64.92 292.68 L 79.69 291.91 L 84.74 291.64 L 89.78 291.32 L 94.85 290.96 L 100.03 290.50 L 105.99 290.29 L 106.30 290.30 L 106.60 290.33 L 107.21 290.48 L 107.50 290.61 L 108.03 290.92 L 108.27 291.12 L 108.69 291.58 L 109.01 292.11 L 110.31 295.54 L 111.36 299.01 L 113.13 305.23 L 113.18 305.84 L 113.12 306.45 L 111.73 311.16 L 110.74 315.68 L 110.89 318.48 L 112.42 319.21 L 116.06 319.44 L 120.26 319.45 L 126.39 319.30 L 132.31 318.86 L 136.84 317.71 L 140.32 315.65 L 141.95 312.58 L 141.66 308.83 L 140.54 304.39 L 138.96 299.94 L 137.48 296.27 L 137.37 295.95 L 137.29 295.63 L 137.24 294.98 L 137.32 294.32 L 137.41 294.00 L 137.69 293.40 L 138.08 292.87 L 138.58 292.43 L 139.15 292.10 L 139.46 291.98 L 139.78 291.89 L 140.11 291.84 L 150.60 290.63 L 154.49 290.08 L 154.80 290.05 L 155.11 290.06 L 155.73 290.15 L 156.32 290.35 L 156.59 290.50 L 156.85 290.67 L 158.92 292.48 L 159.13 292.70 L 159.51 293.18 L 159.66 293.44 L 161.09 296.29 L 163.02 297.58 L 167.77 297.91 L 173.31 297.89 L 179.00 297.75 L 184.74 297.54 L 190.36 297.23 L 195.98 296.83 L 200.08 296.23 L 201.43 294.19 L 200.25 290.70 L 197.18 286.67 L 193.10 282.85 L 190.06 280.21 L 189.60 279.74 L 189.26 279.18 L 189.14 278.88 L 187.76 275.14 L 187.67 274.84 L 187.57 274.22 L 187.56 273.90 L 187.60 273.59 L 187.65 273.28 L 187.74 272.98 L 188.88 269.63 L 188.99 269.35 L 189.31 268.82 L 189.70 268.35 L 189.93 268.15 L 192.72 265.94 L 196.81 262.45 L 199.46 258.50 L 200.59 253.73 L 200.74 248.32 L 200.46 242.80 L 199.95 237.10 L 199.32 231.35 L 198.62 225.68 L 197.85 219.95 L 197.01 214.27 L 196.04 209.16 L 193.91 204.81 L 190.75 200.56 L 187.34 196.54 L 183.64 192.44 L 179.82 188.36 L 175.75 184.15 L 171.64 180.03 L 167.45 175.93 L 163.21 171.86 L 158.93 167.82 L 154.60 163.81 L 150.25 159.88 L 145.91 156.10 L 141.66 152.81 L 137.33 150.96 L 132.63 149.40 L 127.08 147.64 L 126.78 147.53 L 126.51 147.40 L 126.24 147.24 L 121.47 144.04 L 121.00 143.66 L 120.62 143.20 L 120.32 142.68 L 117.87 137.19 L 116.11 131.41 L 114.40 126.10 L 112.34 121.03 L 109.63 116.16 L 109.50 115.88 L 109.30 115.30 L 109.23 114.69 L 109.27 114.07 L 110.36 109.91 L 110.64 109.35 L 114.00 103.83 L 116.66 99.85 L 116.92 99.51 L 120.09 95.92 L 126.80 88.98 L 130.06 85.45 L 132.82 82.11 L 135.75 76.77 L 138.60 71.14 L 141.42 65.44 z M 141.32 58.26 L 141.32 58.26 L 144.04 52.55 L 146.76 46.76 L 149.40 40.98 L 151.62 35.69 L 152.35 32.85 L 152.60 30.96 L 151.70 28.67 L 150.20 27.46 L 147.79 26.60 L 144.68 26.50 L 140.27 27.28 L 136.01 29.03 L 131.64 31.73 L 127.57 34.92 L 123.53 38.66 L 119.76 42.67 L 116.48 46.81 L 113.36 51.48 L 110.40 56.49 L 107.63 61.55 L 102.29 71.82 L 99.45 77.14 L 96.56 82.05 L 95.81 83.07 L 95.39 83.50 L 95.15 83.71 L 94.76 84.02 L 94.33 84.30 L 93.61 84.68 L 92.87 84.95 L 92.37 85.09 L 91.60 85.21 L 90.44 85.22 L 89.52 85.07 L 88.90 84.89 L 88.35 84.68 L 87.31 84.10 L 86.66 83.59 L 85.87 82.75 L 85.52 82.26 L 85.06 81.39 L 84.87 80.92 L 82.97 75.51 L 82.73 74.61 L 82.70 74.40 L 81.89 68.14 L 81.45 62.07 L 81.11 56.24 L 80.32 51.09 L 78.62 45.80 L 77.00 41.31 L 75.16 36.51 L 73.40 32.43 L 72.61 31.13 L 71.71 34.48 L 71.20 39.94 L 70.93 45.55 L 70.77 51.57 L 70.33 77.26 L 70.17 78.56 L 69.88 79.50 L 69.69 79.96 L 69.45 80.41 L 69.17 80.84 L 68.56 81.60 L 68.16 81.98 L 67.46 82.51 L 67.07 82.77 L 66.86 82.88 L 66.06 83.23 L 65.54 83.39 L 65.18 83.49 L 64.70 83.57 L 61.74 83.96 L 57.69 84.73 L 53.91 85.98 L 50.70 87.72 L 48.12 89.88 L 45.84 93.07 L 43.47 97.04 L 41.20 101.10 L 35.89 110.95 L 32.67 116.65 L 29.20 122.09 L 27.13 125.22 L 26.47 128.15 L 26.49 131.96 L 26.95 136.18 L 27.72 139.68 L 29.37 142.40 L 35.97 149.13 L 36.52 149.79 L 36.87 150.28 L 37.27 151.04 L 39.52 156.17 L 40.93 161.36 L 41.02 162.30 L 41.02 162.63 L 40.91 163.60 L 40.82 164.03 L 40.68 164.50 L 38.87 169.90 L 37.24 175.39 L 35.98 181.03 L 35.14 186.76 L 34.80 192.28 L 35.02 197.93 L 35.88 203.20 L 37.38 208.64 L 39.11 214.38 L 40.94 220.18 L 42.82 226.38 L 44.48 232.58 L 45.90 238.74 L 47.14 245.15 L 48.14 251.47 L 48.93 257.63 L 49.25 264.51 L 48.59 270.83 L 48.42 271.75 L 46.87 277.79 L 44.58 283.86 L 41.90 289.56 L 38.93 295.08 L 35.97 300.15 L 32.89 305.34 L 30.26 310.14 L 29.99 311.14 L 31.06 311.25 L 35.79 311.34 L 40.08 311.31 L 44.10 311.03 L 47.82 310.25 L 51.09 309.14 L 53.03 307.58 L 54.59 304.65 L 56.38 300.30 L 59.07 293.52 L 59.36 292.90 L 59.79 292.20 L 60.15 291.73 L 60.32 291.55 L 61.05 290.85 L 62.08 290.17 L 62.51 289.98 L 63.36 289.68 L 64.28 289.49 L 84.54 288.41 L 89.55 288.09 L 94.62 287.73 L 99.92 287.26 L 105.88 287.05 L 106.36 287.06 L 106.95 287.11 L 107.41 287.20 L 108.24 287.42 L 108.96 287.72 L 109.90 288.28 L 110.34 288.65 L 110.64 288.92 L 111.27 289.62 L 111.78 290.43 L 112.04 290.96 L 113.33 294.39 L 114.47 298.12 L 116.24 304.35 L 116.31 304.65 L 116.35 304.96 L 116.42 305.86 L 116.30 307.07 L 114.86 311.97 L 114.00 315.94 L 114.00 316.07 L 116.17 316.20 L 120.19 316.22 L 126.20 316.06 L 131.81 315.65 L 135.59 314.69 L 137.89 313.33 L 138.65 311.90 L 138.45 309.35 L 137.42 305.29 L 135.94 301.09 L 134.48 297.49 L 134.31 297.01 L 134.09 296.13 L 134.00 294.90 L 134.15 293.66 L 134.38 292.87 L 134.75 292.04 L 134.91 291.75 L 135.62 290.76 L 135.94 290.44 L 136.44 290.00 L 136.96 289.62 L 137.77 289.17 L 138.32 288.95 L 138.89 288.78 L 139.74 288.62 L 150.23 287.41 L 154.47 286.83 L 154.67 286.81 L 155.38 286.83 L 156.20 286.94 L 156.50 287.01 L 157.39 287.30 L 157.82 287.49 L 158.25 287.72 L 158.66 287.99 L 158.98 288.24 L 161.21 290.19 L 161.68 290.70 L 162.06 291.18 L 162.33 291.59 L 163.60 294.08 L 164.09 294.41 L 167.90 294.67 L 173.23 294.65 L 178.88 294.52 L 184.62 294.31 L 190.13 294.01 L 195.63 293.60 L 197.71 293.31 L 197.35 292.24 L 194.76 288.84 L 190.88 285.21 L 187.94 282.66 L 187.27 281.98 L 186.98 281.63 L 186.37 280.65 L 186.13 280.09 L 184.59 275.84 L 184.47 275.34 L 184.35 274.50 L 184.33 273.77 L 184.41 273.06 L 184.55 272.36 L 185.82 268.58 L 186.08 267.94 L 186.51 267.18 L 186.84 266.72 L 187.40 266.07 L 187.59 265.90 L 190.62 263.47 L 194.37 260.28 L 196.44 257.18 L 197.36 253.30 L 197.51 248.32 L 197.23 243.08 L 196.74 237.46 L 196.10 231.71 L 195.41 226.08 L 194.65 220.42 L 193.80 214.74 L 192.95 210.19 L 191.12 206.48 L 188.25 202.61 L 184.88 198.64 L 181.27 194.65 L 177.45 190.57 L 173.42 186.39 L 169.38 182.34 L 165.21 178.26 L 160.99 174.21 L 156.73 170.20 L 152.40 166.19 L 148.08 162.28 L 143.85 158.59 L 140.02 155.62 L 136.15 153.97 L 131.66 152.48 L 126.10 150.73 L 125.64 150.56 L 124.98 150.26 L 124.43 149.93 L 119.66 146.72 L 118.95 146.16 L 118.53 145.75 L 117.96 145.04 L 117.50 144.27 L 114.92 138.51 L 114.78 138.14 L 113.03 132.40 L 111.36 127.21 L 109.41 122.43 L 106.80 117.74 L 106.42 116.90 L 106.14 116.01 L 105.99 114.78 L 106.00 114.45 L 106.08 113.54 L 106.14 113.24 L 107.23 109.09 L 107.33 108.79 L 107.87 107.67 L 111.30 102.03 L 113.96 98.05 L 114.49 97.37 L 117.66 93.78 L 124.42 86.79 L 127.68 83.25 L 130.13 80.28 L 132.92 75.21 L 135.72 69.68 L 138.51 64.02 z M 144.89 29.75 L 144.89 29.75 L 141.20 30.40 L 137.46 31.93 L 133.51 34.37 L 129.68 37.37 L 125.80 40.97 L 122.19 44.80 L 119.13 48.68 L 116.10 53.21 L 113.19 58.13 L 110.51 63.05 L 105.16 73.32 L 102.24 78.79 L 99.35 83.70 L 98.28 85.17 L 97.51 85.94 L 96.65 86.65 L 95.85 87.16 L 94.93 87.63 L 93.98 88.00 L 93.03 88.26 L 91.87 88.43 L 90.19 88.45 L 88.81 88.23 L 87.76 87.92 L 86.99 87.61 L 85.51 86.79 L 84.66 86.13 L 84.30 85.80 L 83.51 84.96 L 83.23 84.62 L 82.77 83.96 L 82.13 82.77 L 81.82 81.99 L 79.91 76.58 L 79.53 75.11 L 78.66 68.37 L 78.22 62.30 L 77.89 56.57 L 77.16 51.84 L 75.54 46.79 L 74.28 43.29 L 74.17 45.64 L 74.00 51.66 L 73.56 77.32 L 73.34 79.23 L 72.97 80.46 L 72.86 80.76 L 72.55 81.47 L 72.31 81.93 L 71.88 82.61 L 71.08 83.62 L 70.79 83.94 L 70.26 84.44 L 69.43 85.08 L 68.84 85.48 L 68.31 85.77 L 67.07 86.31 L 66.55 86.48 L 65.95 86.63 L 65.12 86.78 L 62.19 87.16 L 58.54 87.86 L 55.19 88.97 L 52.51 90.42 L 50.52 92.09 L 48.52 94.90 L 46.29 98.62 L 44.02 102.68 L 38.74 112.49 L 35.40 118.39 L 31.93 123.83 L 30.16 126.50 L 29.71 128.51 L 29.72 131.77 L 30.15 135.68 L 30.76 138.45 L 31.95 140.41 L 38.28 146.86 L 39.01 147.71 L 39.64 148.61 L 40.23 149.74 L 42.57 155.09 L 44.12 160.79 L 44.24 162.02 L 44.25 162.78 L 44.13 163.97 L 43.93 164.92 L 43.80 165.40 L 41.94 170.92 L 40.39 176.17 L 39.17 181.60 L 38.37 187.12 L 38.04 192.28 L 38.24 197.65 L 39.03 202.48 L 40.48 207.71 L 42.20 213.41 L 44.02 219.21 L 45.95 225.55 L 47.63 231.85 L 49.08 238.12 L 50.33 244.65 L 51.35 251.06 L 52.14 257.21 L 52.48 264.36 L 52.46 264.85 L 51.80 271.16 L 51.55 272.56 L 49.96 278.76 L 47.61 285.00 L 44.83 290.94 L 41.73 296.71 L 38.77 301.78 L 35.73 306.89 L 35.07 308.09 L 39.93 308.08 L 43.67 307.82 L 46.96 307.12 L 49.51 306.26 L 50.48 305.48 L 51.66 303.29 L 53.38 299.07 L 56.06 292.32 L 56.50 291.38 L 57.03 290.50 L 57.78 289.53 L 58.09 289.20 L 59.03 288.32 L 60.52 287.34 L 61.42 286.93 L 62.26 286.63 L 62.71 286.50 L 63.63 286.32 L 64.10 286.26 L 84.33 285.18 L 89.32 284.86 L 94.38 284.50 L 99.81 284.02 L 105.77 283.82 L 106.65 283.84 L 107.23 283.89 L 107.99 284.01 L 109.29 284.36 L 110.42 284.83 L 111.77 285.64 L 112.40 286.15 L 112.87 286.59 L 113.85 287.67 L 114.51 288.70 L 115.07 289.82 L 116.36 293.25 L 117.59 297.23 L 119.35 303.46 L 119.50 304.08 L 119.56 304.56 L 119.65 305.90 L 119.48 307.68 L 117.96 312.97 L 120.12 312.98 L 126.03 312.83 L 131.31 312.44 L 134.32 311.67 L 135.33 311.08 L 135.24 309.87 L 134.32 306.22 L 132.89 302.16 L 131.43 298.57 L 131.17 297.80 L 130.95 296.92 L 130.86 296.37 L 130.77 295.14 L 130.76 294.82 L 130.79 294.51 L 130.98 293.02 L 131.33 291.76 L 131.80 290.71 L 132.16 290.02 L 133.01 288.85 L 133.31 288.50 L 133.80 288.01 L 134.54 287.38 L 135.22 286.90 L 136.38 286.24 L 137.13 285.94 L 137.94 285.68 L 138.31 285.59 L 139.37 285.40 L 149.86 284.20 L 154.15 283.61 L 154.76 283.58 L 155.82 283.62 L 156.63 283.73 L 157.35 283.88 L 158.40 284.23 L 159.36 284.65 L 160.02 285.02 L 160.64 285.44 L 161.11 285.80 L 163.34 287.76 L 164.06 288.51 L 164.61 289.19 L 165.02 289.80 L 165.80 291.28 L 168.02 291.44 L 173.15 291.42 L 178.76 291.28 L 184.50 291.07 L 189.89 290.78 L 191.93 290.63 L 188.67 287.57 L 185.64 284.94 L 184.78 284.05 L 184.21 283.32 L 183.50 282.14 L 183.16 281.37 L 181.55 276.95 L 181.45 276.61 L 181.27 275.81 L 181.14 274.98 L 181.11 274.59 L 181.09 273.85 L 181.11 273.41 L 181.23 272.42 L 181.42 271.51 L 182.82 267.37 L 183.16 266.54 L 183.78 265.43 L 184.39 264.61 L 185.07 263.83 L 185.38 263.53 L 188.59 260.95 L 191.95 258.09 L 193.42 255.88 L 194.13 252.87 L 194.27 248.31 L 194.01 243.37 L 193.52 237.81 L 192.88 232.07 L 192.21 226.51 L 191.45 220.90 L 190.61 215.22 L 189.86 211.25 L 188.33 208.15 L 185.71 204.61 L 182.48 200.81 L 178.91 196.86 L 175.09 192.79 L 171.09 188.64 L 167.11 184.65 L 162.97 180.60 L 158.77 176.57 L 154.53 172.57 L 150.23 168.59 L 145.91 164.67 L 141.77 161.07 L 138.38 158.44 L 135.02 157.01 L 130.65 155.56 L 125.13 153.82 L 124.29 153.50 L 123.46 153.11 L 122.63 152.61 L 117.86 149.41 L 116.81 148.59 L 116.14 147.93 L 115.30 146.89 L 114.62 145.75 L 111.97 139.84 L 111.68 139.08 L 109.95 133.39 L 108.32 128.32 L 106.49 123.83 L 103.86 119.08 L 103.40 118.06 L 102.98 116.69 L 102.76 114.95 L 102.77 114.16 L 102.88 113.07 L 103.01 112.42 L 104.10 108.27 L 104.25 107.79 L 104.42 107.39 L 105.11 105.98 L 108.61 100.23 L 111.27 96.25 L 112.07 95.23 L 115.24 91.64 L 122.04 84.59 L 125.26 81.10 L 127.44 78.45 L 130.08 73.65 L 132.83 68.22 L 135.61 62.59 L 138.41 56.84 L 141.11 51.18 L 143.83 45.38 L 146.45 39.64 L 148.54 34.66 L 149.16 32.25 L 149.28 31.37 L 149.00 30.65 L 148.58 30.32 L 147.19 29.82 z M 145.11 32.99 L 145.11 32.99 L 142.13 33.52 L 138.91 34.84 L 135.38 37.02 L 131.80 39.82 L 128.07 43.28 L 124.62 46.94 L 121.77 50.54 L 118.84 54.94 L 115.98 59.78 L 113.38 64.54 L 108.03 74.81 L 105.03 80.43 L 102.14 85.34 L 100.90 87.07 L 100.58 87.45 L 99.56 88.45 L 98.70 89.15 L 98.38 89.38 L 97.59 89.89 L 96.43 90.50 L 96.09 90.66 L 95.14 91.02 L 93.70 91.42 L 92.13 91.65 L 89.95 91.68 L 88.30 91.43 L 88.09 91.39 L 86.59 90.93 L 85.81 90.63 L 85.41 90.44 L 83.72 89.49 L 82.48 88.52 L 81.94 88.02 L 81.15 87.17 L 80.57 86.46 L 80.11 85.80 L 79.21 84.15 L 78.82 83.21 L 76.79 77.45 L 76.78 77.70 L 76.51 79.89 L 76.02 81.56 L 75.82 82.07 L 75.41 82.99 L 75.17 83.44 L 74.62 84.33 L 73.63 85.61 L 73.18 86.13 L 72.48 86.79 L 72.24 87.00 L 71.41 87.64 L 70.64 88.16 L 69.87 88.60 L 68.35 89.28 L 67.55 89.56 L 66.75 89.76 L 65.69 89.96 L 62.67 90.37 L 59.39 90.99 L 56.45 91.97 L 54.33 93.11 L 52.91 94.30 L 51.24 96.64 L 49.12 100.20 L 46.85 104.25 L 41.58 114.02 L 38.13 120.13 L 34.66 125.57 L 33.19 127.79 L 32.94 128.87 L 32.96 131.58 L 33.36 135.18 L 33.81 137.22 L 34.52 138.41 L 40.59 144.60 L 41.66 145.85 L 42.40 146.92 L 43.20 148.45 L 45.62 154.01 L 47.30 160.20 L 47.46 161.69 L 47.49 162.92 L 47.34 164.30 L 47.11 165.57 L 46.91 166.29 L 45.01 171.95 L 43.53 176.94 L 42.36 182.17 L 41.59 187.47 L 41.29 192.28 L 41.47 197.36 L 42.19 201.75 L 43.58 206.78 L 45.29 212.44 L 47.11 218.24 L 49.07 224.71 L 50.78 231.12 L 52.23 237.39 L 53.53 244.14 L 54.56 250.64 L 55.35 256.80 L 55.71 264.21 L 55.68 265.18 L 54.99 271.74 L 54.68 273.36 L 52.99 279.90 L 50.54 286.37 L 47.77 292.31 L 44.52 298.34 L 40.76 304.77 L 43.25 304.60 L 46.11 304.00 L 47.93 303.38 L 48.74 301.87 L 50.39 297.84 L 53.05 291.12 L 53.65 289.85 L 54.27 288.82 L 55.20 287.57 L 55.44 287.29 L 55.88 286.83 L 57.03 285.78 L 58.96 284.51 L 60.32 283.88 L 61.17 283.58 L 62.06 283.33 L 62.98 283.14 L 63.93 283.03 L 84.13 281.95 L 89.08 281.63 L 94.15 281.27 L 99.70 280.79 L 105.66 280.58 L 106.72 280.60 L 107.75 280.69 L 108.51 280.81 L 110.34 281.29 L 111.89 281.95 L 113.43 282.86 L 113.80 283.12 L 114.44 283.63 L 115.27 284.42 L 116.42 285.70 L 117.41 287.25 L 118.10 288.67 L 119.46 292.30 L 120.70 296.35 L 122.47 302.57 L 122.65 303.36 L 122.79 304.34 L 122.88 305.68 L 122.87 306.22 L 122.65 308.29 L 122.27 309.69 L 125.85 309.59 L 130.82 309.23 L 131.69 309.01 L 131.21 307.12 L 129.85 303.29 L 128.36 299.60 L 128.03 298.58 L 127.81 297.70 L 127.63 296.61 L 127.54 295.38 L 127.53 294.89 L 127.58 294.10 L 127.77 292.61 L 127.86 292.14 L 128.29 290.66 L 128.84 289.40 L 129.41 288.32 L 130.55 286.75 L 131.02 286.21 L 131.70 285.55 L 132.45 284.91 L 133.34 284.26 L 134.97 283.33 L 135.93 282.94 L 136.96 282.60 L 137.54 282.45 L 139.00 282.19 L 149.49 280.98 L 153.71 280.41 L 154.89 280.34 L 156.25 280.41 L 157.07 280.52 L 158.18 280.76 L 159.40 281.15 L 160.66 281.68 L 161.83 282.34 L 162.45 282.76 L 163.11 283.27 L 165.68 285.52 L 166.57 286.47 L 167.12 287.15 L 167.82 288.17 L 168.15 288.20 L 173.07 288.18 L 178.65 288.04 L 184.06 287.85 L 183.32 287.19 L 182.46 286.30 L 181.54 285.15 L 180.63 283.62 L 180.12 282.48 L 178.45 277.89 L 178.29 277.33 L 178.11 276.53 L 177.94 275.45 L 177.88 274.67 L 177.86 273.93 L 177.88 273.27 L 178.06 271.77 L 178.25 270.86 L 178.35 270.48 L 179.75 266.34 L 180.25 265.13 L 181.07 263.68 L 181.95 262.49 L 182.63 261.70 L 183.14 261.19 L 186.57 258.42 L 189.50 255.92 L 190.41 254.57 L 190.91 252.44 L 191.03 248.31 L 190.79 243.65 L 190.30 238.17 L 189.67 232.42 L 189.00 226.90 L 188.25 221.37 L 187.40 215.69 L 186.76 212.29 L 185.54 209.82 L 183.20 206.66 L 180.01 202.90 L 176.55 199.08 L 172.73 195.00 L 168.76 190.88 L 164.85 186.96 L 160.73 182.94 L 156.55 178.92 L 152.33 174.95 L 148.03 170.96 L 143.79 167.11 L 139.72 163.57 L 136.73 161.25 L 133.90 160.04 L 129.67 158.65 L 124.16 156.91 L 122.91 156.43 L 122.09 156.04 L 120.82 155.30 L 116.05 152.10 L 114.67 151.02 L 113.74 150.10 L 112.64 148.73 L 111.75 147.24 L 109.02 141.17 L 108.59 140.03 L 106.87 134.38 L 105.28 129.44 L 103.55 125.20 L 100.91 120.41 L 100.37 119.20 L 99.81 117.37 L 99.55 115.35 L 99.52 114.89 L 99.55 113.85 L 99.70 112.44 L 99.87 111.60 L 100.97 107.45 L 101.17 106.79 L 101.41 106.18 L 102.35 104.30 L 105.92 98.43 L 108.58 94.46 L 109.64 93.08 L 112.81 89.50 L 119.66 82.40 L 122.84 78.95 L 124.76 76.62 L 127.25 72.09 L 129.94 66.75 L 135.51 55.42 L 138.18 49.81 L 140.89 44.01 L 143.51 38.29 L 145.48 33.59 L 145.62 33.01 z M 125.18 300.28 L 125.18 300.28 L 125.58 301.69 L 125.85 302.89 L 126.02 304.12 L 126.11 305.46 L 126.10 306.33 L 127.46 306.23 L 126.85 304.50 L 125.28 300.59 z M 140.14 37.88 L 140.14 37.88 L 137.25 39.67 L 133.92 42.28 L 130.34 45.59 L 127.06 49.07 L 124.42 52.41 L 121.57 56.66 L 118.77 61.42 L 116.25 66.04 L 110.91 76.31 L 107.89 81.96 L 104.93 86.99 L 103.37 89.16 L 102.85 89.75 L 101.61 90.95 L 100.75 91.66 L 100.27 92.02 L 99.10 92.75 L 97.94 93.36 L 97.24 93.68 L 96.29 94.04 L 94.57 94.54 L 94.17 94.62 L 92.60 94.86 L 92.16 94.89 L 89.72 94.91 L 87.81 94.62 L 87.16 94.49 L 85.65 94.03 L 84.42 93.56 L 83.83 93.26 L 82.14 92.31 L 81.73 92.04 L 80.28 90.89 L 79.58 90.23 L 78.79 89.39 L 77.90 88.30 L 77.35 87.49 L 76.90 86.67 L 76.20 87.58 L 75.41 88.47 L 74.39 89.42 L 73.40 90.20 L 72.24 90.98 L 71.47 91.42 L 69.65 92.24 L 68.37 92.69 L 67.35 92.94 L 66.11 93.17 L 63.14 93.57 L 60.19 94.13 L 57.74 94.95 L 56.18 95.79 L 55.29 96.53 L 53.94 98.42 L 51.89 101.85 L 49.69 105.79 L 44.43 115.55 L 40.86 121.87 L 37.36 127.37 L 36.21 129.09 L 36.18 129.24 L 36.19 131.39 L 36.56 134.69 L 36.85 136.01 L 37.09 136.41 L 43.07 142.50 L 44.13 143.76 L 45.17 145.24 L 46.16 147.15 L 48.68 152.94 L 50.43 159.35 L 50.52 159.85 L 50.70 161.62 L 50.72 163.05 L 50.56 164.63 L 50.28 166.17 L 49.98 167.32 L 48.08 172.98 L 46.68 177.72 L 45.55 182.74 L 44.81 187.82 L 44.53 192.28 L 44.70 197.08 L 45.35 201.03 L 46.68 205.85 L 48.37 211.47 L 50.21 217.30 L 52.17 223.78 L 53.93 230.39 L 55.41 236.78 L 56.71 243.53 L 57.76 250.14 L 58.56 256.38 L 58.94 264.29 L 58.90 265.53 L 58.21 272.08 L 57.82 274.17 L 56.12 280.71 L 56.02 281.05 L 55.25 283.09 L 57.38 281.68 L 59.23 280.83 L 60.08 280.53 L 61.42 280.16 L 62.33 279.97 L 63.53 279.82 L 83.92 278.72 L 88.85 278.40 L 93.92 278.04 L 99.59 277.55 L 105.72 277.35 L 106.78 277.37 L 108.03 277.47 L 109.32 277.68 L 111.38 278.23 L 113.15 278.96 L 113.54 279.16 L 115.26 280.19 L 115.64 280.45 L 116.47 281.11 L 117.50 282.07 L 118.99 283.75 L 120.23 285.67 L 121.13 287.53 L 122.55 291.34 L 123.81 295.46 L 124.67 298.48 L 124.40 296.85 L 124.31 295.62 L 124.29 294.97 L 124.37 293.69 L 124.60 291.96 L 124.76 291.25 L 125.25 289.57 L 125.88 288.10 L 126.67 286.61 L 127.94 284.85 L 128.58 284.08 L 129.61 283.08 L 130.55 282.29 L 131.58 281.55 L 133.55 280.42 L 134.93 279.86 L 136.12 279.48 L 136.71 279.32 L 138.63 278.97 L 149.13 277.77 L 153.27 277.20 L 154.89 277.11 L 156.69 277.20 L 157.50 277.31 L 159.01 277.63 L 160.40 278.07 L 161.92 278.70 L 163.41 279.51 L 164.26 280.08 L 165.25 280.83 L 167.81 283.09 L 168.92 284.25 L 169.52 284.96 L 173.00 284.94 L 177.62 284.83 L 177.08 283.58 L 175.41 279.00 L 175.13 278.04 L 174.91 277.03 L 174.74 275.95 L 174.65 274.94 L 174.62 274.02 L 174.64 273.17 L 174.89 271.11 L 175.08 270.21 L 175.23 269.63 L 176.76 265.10 L 177.34 263.72 L 178.35 261.92 L 179.51 260.37 L 180.34 259.41 L 180.85 258.90 L 184.51 255.92 L 187.07 253.74 L 187.38 253.27 L 187.69 252.01 L 187.80 248.30 L 187.56 243.94 L 187.09 238.53 L 186.45 232.78 L 185.79 227.29 L 185.05 221.85 L 184.20 216.17 L 183.67 213.34 L 182.77 211.51 L 180.65 208.66 L 177.61 205.08 L 174.15 201.25 L 170.37 197.21 L 166.43 193.13 L 162.58 189.27 L 158.49 185.27 L 154.33 181.28 L 150.13 177.33 L 145.83 173.34 L 141.66 169.55 L 137.73 166.13 L 135.07 164.06 L 132.77 163.08 L 128.69 161.73 L 123.18 159.99 L 121.54 159.36 L 120.44 158.83 L 119.02 157.99 L 114.25 154.78 L 112.54 153.46 L 111.34 152.28 L 109.98 150.58 L 108.88 148.72 L 106.07 142.49 L 105.50 140.97 L 103.79 135.37 L 102.24 130.56 L 100.62 126.59 L 98.07 121.97 L 97.41 120.51 L 97.28 120.14 L 96.72 118.32 L 96.60 117.79 L 96.34 115.77 L 96.29 114.82 L 96.33 113.50 L 96.53 111.79 L 96.74 110.78 L 97.83 106.62 L 98.09 105.81 L 98.51 104.74 L 99.45 102.86 L 103.23 96.63 L 105.89 92.66 L 107.21 90.94 L 110.38 87.36 L 117.33 80.15 L 120.36 76.87 L 122.07 74.79 L 124.42 70.53 L 127.04 65.33 L 132.58 54.03 L 137.96 42.64 z M 76.60 91.79 L 76.60 91.79 L 75.20 92.89 L 73.84 93.80 L 72.79 94.37 L 70.73 95.29 L 69.44 95.74 L 67.95 96.12 L 66.54 96.38 L 63.60 96.77 L 60.99 97.27 L 59.03 97.92 L 58.00 98.48 L 57.69 98.74 L 56.62 100.25 L 54.67 103.51 L 52.54 107.32 L 47.28 117.09 L 43.59 123.61 L 40.09 129.11 L 39.42 130.10 L 39.43 131.19 L 39.76 134.15 L 39.86 134.62 L 45.38 140.24 L 46.60 141.67 L 47.93 143.57 L 49.03 145.66 L 51.73 151.86 L 53.55 158.50 L 53.70 159.27 L 53.93 161.57 L 53.96 163.19 L 53.75 165.21 L 53.47 166.74 L 53.05 168.35 L 51.18 173.90 L 49.80 178.59 L 48.74 183.31 L 48.04 188.17 L 47.77 192.28 L 47.93 196.79 L 48.51 200.31 L 49.78 204.92 L 51.46 210.50 L 53.31 216.37 L 55.27 222.84 L 57.09 229.66 L 58.59 236.16 L 59.91 243.02 L 60.96 249.63 L 61.77 255.97 L 62.18 264.41 L 62.11 265.87 L 61.39 272.68 L 61.00 274.76 L 60.41 277.08 L 61.69 276.80 L 63.36 276.59 L 83.71 275.49 L 88.62 275.17 L 93.69 274.81 L 99.48 274.32 L 105.61 274.11 L 106.84 274.13 L 108.56 274.28 L 110.16 274.56 L 112.42 275.16 L 114.38 275.97 L 115.02 276.29 L 116.92 277.41 L 117.48 277.79 L 118.49 278.58 L 119.70 279.70 L 121.57 281.79 L 122.95 283.92 L 123.66 285.36 L 124.04 284.72 L 125.31 282.96 L 126.12 281.99 L 127.53 280.59 L 128.47 279.81 L 129.83 278.83 L 131.95 277.61 L 132.34 277.42 L 133.93 276.78 L 135.13 276.39 L 135.87 276.19 L 138.27 275.75 L 148.76 274.56 L 152.84 274.00 L 154.69 273.88 L 155.06 273.88 L 157.12 273.99 L 157.93 274.10 L 159.68 274.47 L 161.38 274.98 L 163.16 275.71 L 164.96 276.67 L 166.24 277.51 L 167.38 278.40 L 169.95 280.65 L 170.98 281.71 L 172.95 281.71 L 172.30 279.90 L 171.97 278.73 L 171.75 277.71 L 171.55 276.45 L 171.43 275.24 L 171.38 274.13 L 171.40 273.10 L 171.68 270.72 L 171.95 269.40 L 172.16 268.60 L 173.69 264.06 L 174.43 262.30 L 175.53 260.34 L 175.76 259.97 L 177.07 258.24 L 177.90 257.28 L 178.56 256.61 L 182.46 253.41 L 184.42 251.75 L 184.46 251.59 L 184.56 248.30 L 184.34 244.22 L 183.87 238.88 L 183.23 233.13 L 182.58 227.68 L 181.86 222.33 L 181.02 216.77 L 180.57 214.38 L 179.99 213.19 L 178.11 210.66 L 175.22 207.25 L 171.75 203.43 L 168.01 199.43 L 164.10 195.38 L 160.32 191.58 L 156.25 187.61 L 152.11 183.64 L 147.93 179.70 L 143.62 175.71 L 139.54 171.99 L 135.74 168.68 L 133.41 166.88 L 131.61 166.11 L 127.72 164.82 L 122.20 163.08 L 120.38 162.39 L 118.78 161.62 L 117.21 160.67 L 112.26 157.34 L 110.41 155.89 L 109.07 154.58 L 108.82 154.30 L 107.32 152.42 L 106.00 150.22 L 103.12 143.82 L 102.40 141.92 L 100.71 136.37 L 99.19 131.65 L 97.69 127.97 L 95.24 123.53 L 94.47 121.85 L 94.18 121.09 L 93.63 119.26 L 93.39 118.21 L 93.11 115.94 L 93.05 114.71 L 93.12 113.13 L 93.32 111.42 L 93.57 110.13 L 94.70 105.80 L 95.08 104.62 L 95.50 103.54 L 96.55 101.43 L 99.80 96.05 L 98.57 96.63 L 97.19 97.15 L 95.24 97.70 L 94.64 97.83 L 93.07 98.06 L 92.19 98.13 L 89.50 98.14 L 87.33 97.83 L 86.23 97.59 L 84.72 97.14 L 83.25 96.57 L 82.24 96.09 L 80.55 95.14 L 79.94 94.73 L 78.07 93.25 L 77.21 92.44 z M 131.19 49.41 L 131.19 49.41 L 129.53 51.17 L 126.99 54.39 L 124.36 58.31 L 121.56 63.07 L 119.13 67.53 L 113.78 77.80 L 112.14 80.88 L 115.00 77.91 L 117.88 74.79 L 119.39 72.96 L 121.58 68.97 L 124.13 63.91 L 129.68 52.61 z M 76.34 96.02 L 76.34 96.02 L 75.40 96.63 L 74.11 97.33 L 72.04 98.25 L 70.52 98.80 L 68.74 99.26 L 66.97 99.59 L 64.07 99.98 L 61.80 100.41 L 60.35 100.90 L 59.99 101.08 L 59.32 102.03 L 57.49 105.09 L 55.36 108.90 L 50.13 118.62 L 46.32 125.35 L 42.67 131.07 L 42.90 133.09 L 47.69 137.97 L 49.06 139.57 L 50.70 141.88 L 51.90 144.16 L 54.79 150.79 L 56.66 157.65 L 56.87 158.63 L 57.17 161.51 L 57.20 163.33 L 56.96 165.55 L 56.65 167.32 L 56.18 169.17 L 54.29 174.81 L 52.94 179.40 L 51.93 183.90 L 51.26 188.52 L 51.01 192.28 L 51.16 196.51 L 51.67 199.58 L 52.89 203.98 L 54.55 209.52 L 56.41 215.43 L 58.37 221.90 L 60.21 228.83 L 61.76 235.56 L 63.10 242.52 L 64.15 249.13 L 64.98 255.55 L 65.41 264.25 L 65.42 264.55 L 65.35 266.01 L 64.57 273.28 L 83.50 272.26 L 88.38 271.94 L 93.45 271.58 L 99.37 271.08 L 105.50 270.87 L 106.89 270.89 L 108.84 271.05 L 110.71 271.37 L 113.46 272.10 L 115.62 272.98 L 116.67 273.50 L 118.73 274.72 L 119.48 275.24 L 120.49 276.04 L 121.90 277.32 L 122.12 277.55 L 123.94 279.59 L 125.45 278.11 L 126.40 277.32 L 128.21 276.02 L 130.34 274.80 L 130.93 274.51 L 132.72 273.78 L 134.13 273.31 L 135.29 273.01 L 137.90 272.54 L 148.39 271.34 L 152.63 270.77 L 154.69 270.64 L 155.24 270.65 L 157.30 270.76 L 158.59 270.93 L 160.34 271.29 L 162.60 271.99 L 164.38 272.71 L 166.48 273.81 L 168.17 274.93 L 168.15 274.07 L 168.19 272.72 L 168.46 270.34 L 168.82 268.56 L 169.09 267.56 L 170.63 263.03 L 171.51 260.89 L 172.70 258.76 L 173.03 258.23 L 174.63 256.11 L 175.46 255.15 L 176.51 254.10 L 180.41 250.91 L 181.26 250.18 L 181.32 248.29 L 181.12 244.51 L 180.65 239.24 L 180.02 233.49 L 179.38 228.11 L 178.66 222.81 L 177.84 217.36 L 177.48 215.43 L 177.22 214.90 L 175.56 212.66 L 172.74 209.34 L 169.38 205.64 L 165.64 201.64 L 161.77 197.62 L 158.05 193.90 L 153.99 189.93 L 149.89 185.99 L 145.73 182.08 L 141.44 178.11 L 137.36 174.39 L 133.68 171.18 L 131.77 169.70 L 130.45 169.14 L 126.74 167.91 L 121.22 166.17 L 119.23 165.41 L 117.11 164.39 L 115.54 163.45 L 110.27 159.89 L 108.28 158.32 L 106.81 156.90 L 106.29 156.32 L 104.66 154.26 L 103.13 151.71 L 100.16 145.15 L 99.31 142.86 L 97.63 137.36 L 96.14 132.77 L 94.75 129.36 L 92.40 125.09 L 91.52 123.19 L 91.09 122.03 L 90.47 119.96 L 90.18 118.62 L 89.90 116.34 L 89.82 114.86 L 89.88 113.00 L 90.10 111.04 L 90.44 109.31 L 91.61 104.82 L 92.07 103.42 L 92.49 102.35 L 92.99 101.32 L 92.20 101.36 L 89.28 101.37 L 86.87 101.03 L 85.30 100.69 L 83.79 100.24 L 81.83 99.48 L 80.66 98.91 L 78.97 97.96 L 77.93 97.27 z M 76.09 99.94 L 76.09 99.94 L 75.42 100.29 L 73.36 101.21 L 71.32 101.93 L 69.34 102.44 L 67.39 102.80 L 64.55 103.18 L 62.62 103.55 L 62.08 103.73 L 60.32 106.67 L 58.19 110.48 L 52.98 120.16 L 49.14 126.95 L 46.09 131.73 L 50.14 135.86 L 51.70 137.70 L 53.34 140.01 L 53.56 140.37 L 54.87 142.87 L 57.84 149.71 L 59.78 156.80 L 60.07 158.14 L 60.39 161.18 L 60.43 163.29 L 60.41 163.67 L 60.15 166.12 L 59.78 168.12 L 59.31 169.97 L 57.40 175.73 L 56.07 180.22 L 55.11 184.50 L 54.48 188.86 L 54.26 192.26 L 54.39 196.22 L 54.83 198.86 L 55.99 203.05 L 57.64 208.55 L 59.51 214.49 L 61.47 220.96 L 63.36 228.10 L 64.92 234.82 L 66.30 242.01 L 67.36 248.71 L 68.21 255.39 L 68.64 264.18 L 68.65 264.69 L 68.59 266.16 L 68.19 269.84 L 83.30 269.03 L 93.22 268.35 L 99.26 267.84 L 105.39 267.64 L 106.93 267.66 L 109.11 267.83 L 111.54 268.24 L 114.50 269.03 L 117.05 270.08 L 118.32 270.72 L 120.38 271.94 L 121.32 272.58 L 122.50 273.49 L 124.14 274.98 L 124.51 274.69 L 126.60 273.21 L 128.73 271.99 L 129.70 271.51 L 131.70 270.71 L 133.31 270.18 L 134.71 269.83 L 137.53 269.32 L 147.95 268.13 L 152.19 267.56 L 154.73 267.40 L 155.42 267.42 L 157.48 267.53 L 159.25 267.76 L 161.28 268.20 L 163.55 268.89 L 165.31 269.60 L 165.69 267.72 L 165.97 266.71 L 167.56 261.99 L 168.60 259.48 L 169.95 257.05 L 170.45 256.28 L 172.04 254.16 L 173.17 252.86 L 174.46 251.60 L 178.08 248.64 L 178.08 248.29 L 177.89 244.79 L 177.44 239.59 L 176.81 233.84 L 176.17 228.50 L 175.46 223.29 L 174.67 217.96 L 174.39 216.52 L 173.09 214.75 L 170.27 211.43 L 167.02 207.85 L 163.28 203.85 L 159.44 199.87 L 155.79 196.21 L 151.72 192.24 L 147.67 188.35 L 143.53 184.45 L 139.26 180.50 L 135.18 176.78 L 131.70 173.74 L 130.11 172.51 L 129.33 172.17 L 125.76 171.00 L 120.25 169.25 L 117.83 168.33 L 115.44 167.17 L 113.87 166.23 L 108.26 162.43 L 106.27 160.87 L 106.03 160.65 L 104.42 159.08 L 103.75 158.34 L 101.99 156.10 L 100.27 153.22 L 97.21 146.49 L 96.22 143.81 L 94.55 138.36 L 93.10 133.86 L 91.82 130.74 L 89.47 126.45 L 88.59 124.56 L 87.99 122.97 L 87.37 120.89 L 86.97 119.02 L 86.69 116.75 L 86.59 114.76 L 86.64 112.89 L 86.88 110.68 L 87.26 108.69 L 88.35 104.51 L 86.18 104.20 L 84.61 103.85 L 82.63 103.26 L 80.68 102.51 L 79.23 101.81 L 77.38 100.78 L 76.15 99.98 z M 75.86 103.63 L 75.86 103.63 L 74.44 104.25 L 72.41 104.98 L 70.15 105.57 L 67.81 106.01 L 65.03 106.38 L 64.16 106.55 L 63.14 108.25 L 61.01 112.06 L 55.79 121.75 L 51.87 128.69 L 50.20 131.30 L 52.61 133.77 L 54.34 135.83 L 55.98 138.14 L 56.31 138.67 L 57.73 141.37 L 60.90 148.64 L 62.90 155.94 L 63.27 157.63 L 63.62 161.11 L 63.67 163.22 L 63.63 164.02 L 63.33 166.69 L 62.97 168.70 L 62.44 170.78 L 60.50 176.65 L 59.20 181.08 L 58.30 185.09 L 57.71 189.20 L 57.50 192.26 L 57.62 195.93 L 57.99 198.15 L 59.09 202.12 L 60.72 207.57 L 62.61 213.55 L 64.57 220.02 L 66.52 227.37 L 68.09 234.21 L 69.50 241.51 L 70.56 248.21 L 71.42 254.98 L 71.88 264.14 L 71.89 264.84 L 71.81 266.41 L 83.08 265.80 L 93.00 265.12 L 99.15 264.61 L 105.28 264.40 L 106.97 264.42 L 109.37 264.61 L 112.08 265.05 L 115.33 265.90 L 115.74 266.04 L 118.29 267.09 L 119.97 267.94 L 122.03 269.16 L 123.31 270.03 L 124.36 270.84 L 124.99 270.40 L 127.30 269.09 L 128.49 268.51 L 130.49 267.70 L 132.51 267.04 L 133.92 266.69 L 137.16 266.10 L 147.52 264.92 L 151.76 264.35 L 154.53 264.17 L 155.48 264.18 L 157.66 264.30 L 159.66 264.55 L 161.97 265.04 L 163.01 265.35 L 164.49 260.96 L 165.61 258.24 L 165.77 257.91 L 167.12 255.48 L 167.72 254.54 L 169.45 252.21 L 170.90 250.55 L 172.41 249.09 L 174.78 247.15 L 174.67 245.08 L 174.22 239.94 L 173.59 234.19 L 172.96 228.89 L 172.26 223.77 L 171.46 218.44 L 171.35 217.85 L 170.57 216.80 L 167.80 213.52 L 164.66 210.07 L 160.92 206.07 L 157.11 202.11 L 153.53 198.53 L 149.48 194.57 L 145.45 190.70 L 141.33 186.83 L 137.08 182.90 L 133.05 179.22 L 129.57 176.18 L 128.45 175.31 L 128.23 175.22 L 124.78 174.08 L 119.09 172.28 L 116.42 171.24 L 113.78 169.95 L 112.20 169.00 L 106.25 164.98 L 104.27 163.41 L 103.87 163.06 L 102.16 161.40 L 101.21 160.34 L 99.32 157.93 L 97.40 154.72 L 94.27 147.83 L 93.18 144.93 L 91.47 139.35 L 90.05 134.96 L 88.89 132.13 L 86.53 127.82 L 85.65 125.92 L 84.89 123.90 L 84.27 121.83 L 83.81 119.68 L 83.48 117.15 L 83.36 114.93 L 83.41 112.79 L 83.67 110.33 L 84.08 108.09 L 84.33 107.11 L 83.67 106.95 L 81.47 106.28 L 79.52 105.53 L 77.65 104.64 z M 75.69 107.24 L 75.69 107.24 L 73.23 108.11 L 70.97 108.71 L 68.24 109.23 L 66.16 109.50 L 63.86 113.59 L 58.64 123.28 L 54.68 130.28 L 54.31 130.87 L 55.08 131.68 L 56.81 133.74 L 58.62 136.27 L 59.17 137.16 L 60.70 140.08 L 63.95 147.57 L 66.02 155.09 L 66.46 157.13 L 66.86 161.04 L 66.90 163.14 L 66.85 164.37 L 66.55 167.05 L 66.11 169.49 L 65.58 171.56 L 63.57 177.66 L 62.33 181.89 L 61.48 185.69 L 60.93 189.53 L 60.74 192.26 L 60.85 195.65 L 61.14 197.43 L 62.19 201.19 L 63.81 206.59 L 65.71 212.61 L 67.67 219.08 L 69.67 226.64 L 71.27 233.60 L 72.70 241.00 L 73.77 247.80 L 74.63 254.58 L 75.06 262.99 L 82.86 262.57 L 92.78 261.89 L 99.04 261.37 L 105.32 261.17 L 107.01 261.18 L 109.62 261.39 L 109.89 261.41 L 112.90 261.92 L 116.16 262.77 L 116.77 262.97 L 119.52 264.10 L 121.42 265.04 L 123.68 266.38 L 124.53 266.94 L 125.88 266.17 L 127.07 265.60 L 129.48 264.63 L 131.72 263.90 L 133.12 263.55 L 136.79 262.89 L 147.09 261.71 L 151.33 261.14 L 154.33 260.95 L 155.50 260.95 L 157.84 261.07 L 160.06 261.34 L 160.89 261.50 L 161.42 259.92 L 162.70 256.82 L 162.94 256.34 L 164.30 253.90 L 164.99 252.80 L 166.85 250.29 L 168.47 248.42 L 170.15 246.77 L 171.47 245.68 L 171.00 240.29 L 170.37 234.54 L 169.75 229.32 L 169.07 224.25 L 168.30 219.17 L 168.02 218.80 L 165.40 215.70 L 162.26 212.25 L 158.56 208.28 L 154.78 204.36 L 151.27 200.84 L 147.23 196.90 L 143.23 193.06 L 139.13 189.20 L 134.88 185.27 L 130.92 181.66 L 127.44 178.62 L 126.88 178.19 L 123.81 177.17 L 118.11 175.36 L 115.25 174.26 L 112.35 172.85 L 110.53 171.78 L 104.25 167.52 L 102.26 165.95 L 101.62 165.38 L 99.76 163.57 L 98.66 162.34 L 96.66 159.77 L 94.53 156.22 L 91.32 149.16 L 90.09 145.88 L 88.37 140.30 L 87.02 136.11 L 85.94 133.47 L 83.59 129.19 L 82.71 127.29 L 81.79 124.83 L 81.17 122.76 L 80.64 120.36 L 80.25 117.33 L 80.12 114.85 L 80.17 112.71 L 80.45 110.00 L 80.55 109.38 L 78.36 108.55 L 76.07 107.46 z M 75.46 110.75 L 75.46 110.75 L 74.06 111.24 L 71.79 111.84 L 68.66 112.44 L 68.19 112.50 L 66.68 115.18 L 61.49 124.82 L 58.29 130.47 L 59.45 131.86 L 61.37 134.56 L 62.04 135.66 L 63.67 138.79 L 66.99 146.49 L 69.14 154.23 L 69.66 156.62 L 70.09 160.97 L 70.14 163.07 L 70.06 164.73 L 69.76 167.40 L 69.29 170.06 L 68.72 172.35 L 66.64 178.68 L 65.46 182.73 L 64.66 186.27 L 64.15 189.86 L 63.98 192.26 L 64.08 195.36 L 64.30 196.70 L 65.29 200.26 L 66.90 205.61 L 68.81 211.67 L 70.77 218.14 L 72.82 225.92 L 74.45 232.99 L 75.89 240.50 L 76.97 247.30 L 77.84 254.17 L 78.13 259.59 L 82.64 259.34 L 92.56 258.66 L 98.93 258.14 L 105.35 257.93 L 107.26 257.96 L 109.87 258.16 L 110.42 258.22 L 113.72 258.78 L 116.98 259.64 L 117.77 259.90 L 120.96 261.20 L 123.06 262.25 L 124.64 263.18 L 125.86 262.60 L 128.27 261.62 L 130.72 260.82 L 132.54 260.36 L 136.42 259.67 L 146.65 258.50 L 151.12 257.91 L 154.12 257.72 L 155.50 257.71 L 158.03 257.85 L 158.74 257.93 L 159.71 255.58 L 160.05 254.89 L 161.47 252.33 L 162.39 250.87 L 164.41 248.16 L 166.02 246.30 L 168.10 244.27 L 167.79 240.64 L 167.16 234.89 L 166.55 229.76 L 165.87 224.73 L 165.24 220.51 L 163.01 217.88 L 159.88 214.42 L 156.23 210.53 L 152.45 206.61 L 149.01 203.16 L 144.97 199.22 L 141.02 195.41 L 136.93 191.57 L 128.79 184.10 L 125.34 181.09 L 122.83 180.26 L 117.13 178.45 L 114.09 177.27 L 110.94 175.77 L 108.72 174.46 L 102.24 170.06 L 100.11 168.37 L 99.36 167.70 L 97.35 165.73 L 96.10 164.32 L 93.98 161.59 L 91.67 157.72 L 88.38 150.50 L 86.99 146.83 L 85.28 141.26 L 83.98 137.23 L 83.00 134.83 L 80.65 130.55 L 79.77 128.65 L 78.69 125.76 L 78.07 123.69 L 77.49 121.06 L 77.04 117.74 L 76.88 114.77 L 76.94 112.64 L 77.05 111.51 L 76.96 111.47 z M 73.65 114.70 L 73.65 114.70 L 72.61 114.97 L 70.25 115.43 L 69.50 116.77 L 64.33 126.35 L 62.19 130.14 L 64.00 132.69 L 64.80 133.97 L 66.53 137.29 L 69.97 145.21 L 70.11 145.62 L 72.26 153.36 L 72.86 156.12 L 73.32 160.65 L 73.38 163.00 L 73.28 165.09 L 72.98 167.76 L 72.43 170.85 L 71.86 173.14 L 69.72 179.69 L 68.60 183.51 L 67.85 186.87 L 67.38 190.19 L 67.23 192.26 L 67.31 195.08 L 67.46 195.98 L 68.39 199.32 L 69.98 204.64 L 71.91 210.73 L 73.91 217.32 L 75.95 225.10 L 77.60 232.27 L 79.09 239.99 L 80.17 246.79 L 81.05 253.76 L 81.19 256.18 L 92.34 255.43 L 98.83 254.90 L 105.25 254.69 L 107.50 254.73 L 110.11 254.93 L 110.80 255.00 L 114.27 255.59 L 117.80 256.51 L 119.00 256.90 L 122.19 258.21 L 124.82 259.53 L 127.06 258.62 L 129.93 257.68 L 131.97 257.18 L 136.05 256.45 L 146.28 255.28 L 150.70 254.70 L 154.11 254.48 L 155.49 254.47 L 156.65 254.53 L 157.14 253.47 L 158.73 250.60 L 159.79 248.94 L 161.96 246.04 L 163.58 244.18 L 164.74 243.02 L 164.57 240.99 L 163.95 235.27 L 163.34 230.14 L 162.67 225.21 L 162.17 221.91 L 160.54 219.97 L 157.51 216.64 L 153.86 212.74 L 150.12 208.85 L 146.75 205.48 L 142.72 201.55 L 138.80 197.77 L 134.71 193.93 L 126.66 186.53 L 123.72 183.96 L 121.85 183.34 L 116.16 181.54 L 112.92 180.29 L 109.54 178.68 L 106.90 177.14 L 100.42 172.74 L 97.95 170.78 L 97.10 170.02 L 95.08 168.05 L 93.54 166.30 L 91.31 163.42 L 88.80 159.22 L 85.35 151.65 L 83.90 147.79 L 82.20 142.25 L 80.92 138.29 L 80.08 136.23 L 77.71 131.92 L 76.83 130.02 L 75.66 126.89 L 74.97 124.62 L 74.28 121.49 L 73.83 118.18 L 73.65 114.94 z M 70.93 120.93 L 70.93 120.93 L 67.18 127.88 L 66.02 129.94 L 66.75 130.98 L 67.67 132.47 L 69.40 135.79 L 72.94 143.92 L 73.16 144.53 L 75.38 152.49 L 76.02 155.43 L 76.55 160.57 L 76.61 162.92 L 76.50 165.44 L 76.20 168.12 L 75.57 171.63 L 74.94 174.14 L 72.83 180.59 L 71.74 184.32 L 71.03 187.45 L 70.60 190.51 L 70.47 192.33 L 70.54 194.79 L 70.62 195.27 L 71.49 198.39 L 73.07 203.66 L 75.01 209.80 L 77.01 216.38 L 79.08 224.27 L 80.78 231.65 L 82.27 239.38 L 83.36 246.29 L 84.18 252.74 L 92.12 252.20 L 98.73 251.66 L 105.30 251.46 L 107.75 251.50 L 110.36 251.70 L 111.34 251.81 L 114.81 252.40 L 118.81 253.43 L 120.23 253.90 L 123.42 255.21 L 124.96 255.98 L 126.05 255.55 L 129.15 254.54 L 131.41 253.99 L 135.68 253.24 L 145.92 252.07 L 150.28 251.49 L 153.90 251.25 L 154.67 251.24 L 155.90 249.03 L 157.20 247.00 L 159.51 243.92 L 161.39 241.78 L 160.74 235.65 L 160.13 230.52 L 159.47 225.69 L 159.11 223.30 L 158.14 222.14 L 155.15 218.85 L 151.50 214.95 L 147.79 211.10 L 144.49 207.80 L 140.48 203.88 L 136.58 200.13 L 132.49 196.28 L 124.53 188.97 L 122.09 186.83 L 115.18 184.63 L 111.53 183.21 L 108.15 181.61 L 105.26 179.93 L 98.60 175.42 L 95.94 173.32 L 94.83 172.34 L 92.82 170.37 L 91.12 168.45 L 88.64 165.24 L 86.02 160.89 L 85.85 160.56 L 82.40 152.99 L 80.81 148.74 L 79.12 143.25 L 77.85 139.35 L 77.16 137.64 L 74.77 133.28 L 73.89 131.39 L 72.63 128.03 L 71.81 125.32 L 71.07 121.92 z M 78.61 152.10 L 78.61 152.10 L 79.22 154.92 L 79.79 160.49 L 79.85 162.85 L 79.73 165.59 L 79.41 168.47 L 78.71 172.42 L 78.07 174.93 L 75.93 181.50 L 74.88 185.10 L 74.22 188.06 L 73.82 190.83 L 73.71 192.40 L 73.77 194.47 L 74.59 197.46 L 76.16 202.68 L 78.11 208.86 L 80.11 215.45 L 82.22 223.45 L 83.96 231.04 L 85.45 238.77 L 86.56 245.78 L 87.01 249.30 L 91.90 248.97 L 98.62 248.43 L 105.35 248.22 L 108.00 248.27 L 110.60 248.47 L 111.72 248.60 L 115.35 249.21 L 119.62 250.30 L 121.46 250.91 L 124.65 252.21 L 125.12 252.45 L 128.16 251.46 L 130.63 250.85 L 135.31 250.02 L 145.55 248.85 L 149.86 248.28 L 152.72 248.09 L 153.18 247.28 L 154.61 245.06 L 156.92 241.98 L 158.03 240.71 L 157.53 236.03 L 156.92 230.90 L 156.28 226.18 L 156.05 224.68 L 155.75 224.32 L 152.79 221.06 L 149.14 217.17 L 145.46 213.34 L 142.23 210.11 L 138.23 206.21 L 134.36 202.48 L 130.27 198.64 L 122.40 191.40 L 120.47 189.71 L 114.01 187.64 L 110.14 186.14 L 106.76 184.54 L 103.45 182.61 L 96.79 178.10 L 93.93 175.86 L 92.57 174.65 L 90.55 172.68 L 88.70 170.59 L 85.96 167.07 L 83.25 162.55 L 82.98 162.06 L 79.38 154.13 z M 69.83 129.77 L 69.83 129.77 L 69.82 129.79 L 69.87 129.88 z M 82.72 167.95 L 82.72 167.95 L 82.60 169.04 L 81.89 172.99 L 81.21 175.72 L 79.04 182.41 L 78.02 185.91 L 77.40 188.63 L 77.05 191.16 L 76.95 192.47 L 76.99 194.00 L 77.69 196.53 L 79.25 201.71 L 81.21 207.92 L 83.21 214.51 L 85.37 222.73 L 87.14 230.42 L 88.64 238.26 L 89.83 245.87 L 91.68 245.75 L 98.53 245.19 L 105.25 244.98 L 108.24 245.04 L 110.85 245.24 L 112.26 245.41 L 116.16 246.07 L 120.42 247.16 L 122.69 247.91 L 125.31 248.98 L 127.16 248.38 L 129.86 247.71 L 134.95 246.80 L 145.18 245.63 L 149.44 245.07 L 150.82 244.97 L 152.03 243.12 L 154.34 240.03 L 154.66 239.65 L 154.32 236.42 L 153.71 231.28 L 153.00 226.10 L 150.43 223.28 L 146.78 219.38 L 143.13 215.59 L 139.97 212.43 L 135.99 208.54 L 132.14 204.84 L 128.05 200.99 L 120.27 193.84 L 118.83 192.58 L 112.84 190.66 L 108.75 189.07 L 105.37 187.46 L 101.64 185.29 L 94.80 180.65 L 91.94 178.41 L 90.30 176.97 L 88.29 175.00 L 86.27 172.74 L 83.41 169.05 L 83.19 168.74 z M 84.56 175.67 L 84.56 175.67 L 84.29 176.72 L 82.15 183.31 L 81.16 186.70 L 80.59 189.24 L 80.27 191.47 L 80.20 192.54 L 80.22 193.54 L 80.79 195.60 L 82.33 200.73 L 84.31 206.98 L 86.31 213.57 L 88.50 221.91 L 90.31 229.81 L 91.82 237.65 L 92.57 242.43 L 98.43 241.96 L 105.15 241.75 L 108.49 241.81 L 111.10 242.01 L 112.80 242.21 L 116.96 242.93 L 121.44 244.09 L 123.71 244.84 L 125.44 245.54 L 126.38 245.24 L 129.08 244.57 L 134.58 243.59 L 144.74 242.42 L 148.98 241.87 L 149.44 241.18 L 151.31 238.68 L 151.11 236.80 L 150.50 231.67 L 149.93 227.54 L 148.03 225.46 L 144.41 221.59 L 140.80 217.83 L 137.72 214.75 L 133.74 210.87 L 129.92 207.19 L 125.83 203.35 L 118.14 196.27 L 117.21 195.46 L 111.85 193.74 L 107.35 191.99 L 103.98 190.39 L 100.01 188.08 L 92.81 183.20 L 89.80 180.84 L 88.04 179.29 L 85.87 177.15 z M 86.03 181.83 L 86.03 181.83 L 85.25 184.22 L 84.29 187.51 L 83.77 189.83 L 83.49 191.80 L 83.44 192.60 L 83.45 193.07 L 83.89 194.66 L 85.42 199.75 L 87.41 206.04 L 89.41 212.63 L 91.63 221.08 L 93.49 229.21 L 95.02 237.15 L 95.30 238.97 L 98.33 238.72 L 105.06 238.51 L 108.73 238.58 L 111.34 238.78 L 113.35 239.02 L 117.77 239.80 L 122.45 241.01 L 124.73 241.76 L 125.59 242.10 L 128.51 241.39 L 134.21 240.37 L 144.37 239.21 L 147.15 238.84 L 147.95 237.76 L 147.29 232.05 L 146.86 228.99 L 145.64 227.64 L 142.05 223.81 L 138.47 220.08 L 135.46 217.06 L 127.70 209.54 L 123.64 205.73 L 115.59 198.34 L 110.68 196.75 L 105.96 194.92 L 102.58 193.31 L 98.20 190.76 L 90.99 185.88 L 87.65 183.27 z M 87.69 187.41 L 87.69 187.41 L 87.43 188.29 L 86.95 190.44 L 86.71 192.12 L 86.68 192.63 L 86.99 193.73 L 88.51 198.77 L 90.51 205.10 L 92.54 211.81 L 94.77 220.26 L 96.67 228.60 L 98.00 235.50 L 105.12 235.28 L 108.98 235.35 L 111.59 235.55 L 113.92 235.84 L 118.58 236.67 L 123.47 237.94 L 125.83 238.72 L 127.94 238.20 L 133.84 237.15 L 144.48 235.92 L 144.07 232.42 L 143.79 230.42 L 139.69 226.02 L 136.14 222.33 L 133.20 219.39 L 125.49 211.91 L 121.43 208.09 L 113.94 201.21 L 109.50 199.77 L 104.79 197.93 L 101.19 196.24 L 96.38 193.44 L 89.00 188.43 z M 90.20 193.16 L 90.20 193.16 L 91.59 197.80 L 93.61 204.17 L 95.67 210.99 L 97.90 219.44 L 99.85 227.99 L 100.65 232.18 L 105.01 232.04 L 109.04 232.11 L 111.83 232.32 L 114.32 232.63 L 119.39 233.54 L 124.28 234.80 L 125.96 235.35 L 127.17 235.06 L 133.47 233.94 L 140.89 233.08 L 140.73 231.89 L 137.32 228.23 L 133.81 224.57 L 130.95 221.71 L 123.28 214.27 L 119.21 210.46 L 112.27 204.07 L 108.33 202.79 L 103.61 200.95 L 99.57 199.03 L 94.57 196.12 z M 95.89 200.64 L 95.89 200.64 L 96.70 203.19 L 98.80 210.16 L 101.03 218.62 L 103.01 227.27 L 103.31 228.86 L 105.07 228.80 L 109.28 228.88 L 112.07 229.09 L 114.72 229.42 L 120.20 230.40 L 125.09 231.67 L 126.08 231.99 L 126.60 231.87 L 132.91 230.75 L 135.01 230.50 L 131.47 226.81 L 128.70 224.03 L 121.06 216.63 L 117.00 212.82 L 110.60 206.93 L 107.15 205.80 L 102.43 203.96 L 97.94 201.83 z M 101.23 206.97 L 101.23 206.97 L 101.94 209.34 L 104.16 217.80 L 105.94 225.58 L 109.52 225.65 L 112.31 225.86 L 115.12 226.21 L 121.00 227.27 L 126.26 228.65 L 128.36 228.27 L 126.45 226.36 L 118.85 218.99 L 114.80 215.20 L 108.92 209.78 L 105.97 208.82 L 101.25 206.98 z M 106.05 212.25 L 106.05 212.25 L 107.32 217.08 L 108.53 222.40 L 109.76 222.42 L 112.55 222.63 L 115.70 223.02 L 118.97 223.61 L 116.64 221.36 L 112.61 217.58 L 107.24 212.64 z"
    style="fill:#66ff66; fill-opacity:0.40; fill-rule:evenodd; stroke:#003300; stroke-opacity:1.00; stroke-width:1.20;"/>
</svg>
