<?xml version="1.0" encoding="UTF-8" standalone="no"?>
<svg
   xmlns:svg="http://www.w3.org/2000/svg"
   xmlns="http://www.w3.org/2000/svg"
   width="420px"
   height="320px"
   viewBox="0 0 420 320" >
  <path
     d=" M 40.00 302.00 L  40.00 200.00  304.66 98.20  Z M 305.20 98.00 L  304.66 98.20  305.00 97.97  Z M 305.00 97.97 L  40.00 40.20  380.00 40.20  Z "
     style="fill:#00FF00; fill-opacity:0.50; fill-rule:evenodd; stroke:#0000FF; stroke-opacity:0.50; stroke-width:1.00;"
     id="path2" />
  <g
     font-family="Verdana"
     font-size="12"
     fill="#000000"
     id="g14">
    <text
       x="40"
       y="310"
       id="text4">10,110</text>
    <text
       x="40"
       y="190"
       id="text6">10,80</text>
    <text
       x="310"
       y="105"
       id="text8">88,50</text>
    <text
       x="40"
       y="38"
       id="text10">10,33</text>
    <text
       x="370"
       y="38"
       id="text12">110,33</text>
  </g>
  <path
     d=" M 275.28 258.48 L  272.22 253.38  268.14 244.20  268.14 242.16  326.28 219.72  Z M 342.60 213.60 L  326.28 219.72  336.48 212.58  Z M 325.26 178.92 L  334.44 180.96  343.62 186.06  351.78 192.18  356.88 197.28  336.48 212.58  275.28 199.32  278.34 195.24  285.48 188.10  294.66 183.00  303.84 179.94  314.04 177.90  Z "
     style="fill:#00FF00; fill-opacity:0.50; fill-rule:evenodd; stroke:#0000FF; stroke-opacity:0.50; stroke-width:1.00;"
     />
  <path
     d=" M 368.10 228.90 L  367.06 239.17  363.97 249.01  358.96 258.03  352.24 265.86  344.08 272.18  334.81 276.73  324.82 279.31  314.52 279.83  304.32 278.27  294.64 274.69  285.88 269.23  278.40 262.12  272.51 253.65  268.44 244.17  266.36 234.06  266.36 223.74  268.44 213.63  272.51 204.15  278.40 195.68  285.88 188.57  294.64 183.11  304.32 179.53  314.52 177.97  324.82 178.49  334.81 181.07  344.08 185.62  352.24 191.94  358.96 199.77  363.97 208.79  367.06 218.63  Z "
     style="fill:#000000; fill-opacity:0.00; fill-rule:evenodd; stroke:#FFFFFF; stroke-opacity:1.00; stroke-width:2.00;"
     />
  <path
     d=" M 368.10 228.90 L  367.06 239.17  363.97 249.01  358.96 258.03  352.24 265.86  344.08 272.18  334.81 276.73  324.82 279.31  314.52 279.83  304.32 278.27  294.64 274.69  285.88 269.23  278.40 262.12  272.51 253.65  268.44 244.17  266.36 234.06  266.36 223.74  268.44 213.63  272.51 204.15  278.40 195.68  285.88 188.57  294.64 183.11  304.32 179.53  314.52 177.97  324.82 178.49  334.81 181.07  344.08 185.62  352.24 191.94  358.96 199.77  363.97 208.79  367.06 218.63  Z "
     style="fill:#000000; fill-opacity:0.00; fill-rule:evenodd; stroke:#D0D0D0; stroke-opacity:1.00; stroke-width:1.00;"
     />
  <path
     style="fill:none;stroke:#b10000;stroke-width:1;stroke-linecap:butt;stroke-linejoin:miter;stroke-miterlimit:4;stroke-dasharray:3, 3;stroke-dashoffset:0;stroke-opacity:0.333333"
     d="M 301.68501,110.62791 272.51,204.15" />
  <path
     style="fill:none;stroke:#b10000;stroke-width:1;stroke-linecap:butt;stroke-linejoin:miter;stroke-miterlimit:4;stroke-dasharray:3, 3;stroke-dashoffset:0;stroke-opacity:0.333333"
     d="M 309.34834,112.45052 358.96,199.77" />
</svg>
