<?xml version="1.0" standalone="no"?>
<svg width="300px" height="300px" viewBox="0 0 300 300" version="1.1" xmlns="http://www.w3.org/2000/svg">

 <path d=" M 294.12 147.06 L 18.61 235.84 L 186.98 0.12 L 186.98 294.00 L 18.61 58.29 z"
 style="fill:#00009C; fill-opacity:0.09; fill-rule:nonzero; stroke:#B3B3DA; stroke-opacity:0.80; stroke-width:0.80;"/>

 <path d=" M 288.00 186.86 L 0.24 202.16 L 223.71 18.49 L 147.18 300.12 L 46.16 30.73 z"
 style="fill:#9C0000; fill-opacity:0.07; fill-rule:nonzero; stroke:#FFA07A; stroke-opacity:0.80; stroke-width:0.80;"/>

 <path d=" M 159.43 254.20 L 147.18 300.12 L 110.45 205.22 L 122.69 202.16 z M 186.98 294.00 L 159.43 254.20 L 177.80 192.98 L 186.98 192.98 z M 110.45 205.22 L 18.61 235.84 L 43.10 199.10 L 107.39 196.04 z M 82.90 147.06 L 43.10 199.10 L 0.24 202.16 L 76.78 140.94 z M 288.00 186.86 L 186.98 192.98 L 186.98 180.73 L 248.20 162.37 z M 294.12 147.06 L 248.20 162.37 L 193.10 125.63 L 196.16 116.45 z M 61.47 73.59 L 85.96 131.76 L 76.78 140.94 L 18.61 58.29 z M 196.16 116.45 L 186.98 113.39 L 186.98 49.10 L 223.71 18.49 z M 128.82 82.78 L 122.69 91.96 L 61.47 73.59 L 46.16 30.73 z M 186.98 49.10 L 138.00 88.90 L 128.82 82.78 L 186.98 0.12 z"
 style="fill:#80FF9C; fill-opacity:1.00; fill-rule:nonzero; stroke:#003300; stroke-opacity:1.00; stroke-width:0.80;"/>

</svg>
